<svg xmlns="http://www.w3.org/2000/svg" width="32" height="32" viewBox="0 9 32 32" fill="none">
<g clip-path="url(#clip0_3842_13692)">
<path d="M23.8633 19.7274L16.1629 24.1735C16.0617 24.2327 15.9359 24.2327 15.8347 24.1735L8.13672 19.7274C7.9196 19.6015 7.9196 19.2857 8.13672 19.1599L14.7812 15.3257C15.5362 14.889 16.4664 14.889 17.2213 15.3257L23.8658 19.1599C24.0829 19.2857 24.0829 19.6015 23.8658 19.7274H23.8633Z" fill="currentColor"/>
<path d="M15.2006 25.7796V34.6718C15.2006 34.9235 14.9268 35.0814 14.7097 34.9556L8.06519 31.1189C7.31019 30.6822 6.84387 29.8778 6.84387 29.0044V21.3336C6.84387 21.0819 7.11774 20.924 7.33487 21.0498L15.0353 25.4959C15.1365 25.5551 15.1982 25.6637 15.1982 25.7796H15.2006Z" fill="currentColor"/>
<path d="M25.1538 21.3336V29.0044C25.1538 29.8754 24.6899 30.6822 23.9325 31.1189L17.288 34.9556C17.0709 35.0814 16.797 34.9235 16.797 34.6718V25.7796C16.797 25.6637 16.8587 25.5551 16.9598 25.4959L24.6603 21.0498C24.8774 20.924 25.1513 21.0819 25.1513 21.3336H25.1538Z" fill="currentColor"/>
</g>
<g clip-path="url(#clip1_3842_13692)">
<path d="M25.0235 17.7364L21.5398 15.7367C20.9248 15.3844 20.5453 14.7307 20.5435 14.0217L20.533 10.0055C20.5312 9.29651 20.9073 8.64107 21.5205 8.28524L24.9945 6.26796C25.6069 5.91212 26.3634 5.91036 26.9784 6.26269L30.4621 8.26239C31.0771 8.61559 31.4567 9.26927 31.4584 9.97743L31.4681 13.9935C31.4699 14.7017 31.0938 15.358 30.4805 15.7138L27.0074 17.7311C26.395 18.087 25.6385 18.0887 25.0235 17.7364Z" fill="#FFD24B"/>
<path d="M27.0829 11.5335L26.0005 9.75867L24.918 11.5335C24.7643 11.7865 24.419 11.8392 24.1958 11.645L22.8964 10.5116L23.4209 13.0991C23.4472 13.2283 23.5606 13.3214 23.6933 13.3214H28.3086C28.4404 13.3214 28.5546 13.2283 28.5809 13.0991L29.1055 10.5116L27.806 11.645C27.5828 11.8401 27.2384 11.7865 27.0838 11.5335H27.0829Z" fill="#231F20"/>
<path d="M26.0058 10.2296C26.2751 10.2296 26.4934 10.0113 26.4934 9.74196C26.4934 9.47265 26.2751 9.25433 26.0058 9.25433C25.7365 9.25433 25.5182 9.47265 25.5182 9.74196C25.5182 10.0113 25.7365 10.2296 26.0058 10.2296Z" fill="#231F20"/>
<path d="M29.0308 11.1266C29.3001 11.1266 29.5185 10.9083 29.5185 10.639C29.5185 10.3697 29.3001 10.1514 29.0308 10.1514C28.7615 10.1514 28.5432 10.3697 28.5432 10.639C28.5432 10.9083 28.7615 11.1266 29.0308 11.1266Z" fill="#231F20"/>
<path d="M22.9693 11.1266C23.2386 11.1266 23.4569 10.9083 23.4569 10.639C23.4569 10.3697 23.2386 10.1514 22.9693 10.1514C22.7 10.1514 22.4817 10.3697 22.4817 10.639C22.4817 10.9083 22.7 11.1266 22.9693 11.1266Z" fill="#231F20"/>
<path d="M28.204 13.744H23.7961C23.6087 13.744 23.4569 13.8959 23.4569 14.0832V14.084C23.4569 14.2713 23.6087 14.4232 23.7961 14.4232H28.204C28.3913 14.4232 28.5432 14.2713 28.5432 14.084V14.0832C28.5432 13.8959 28.3913 13.744 28.204 13.744Z" fill="#231F20"/>
</g>
</svg>