<svg xmlns="http://www.w3.org/2000/svg" width="32" height="32" viewBox="0 4 32 32" fill="none">
<path d="M23.7802 28.9231H8.21978C5.89231 28.9231 4 27.0294 4 24.7033C4 22.5789 5.57846 20.8145 7.62506 20.5257C7.9811 18.4817 9.76791 16.9231 11.9121 16.9231C12.5095 16.9231 13.0949 17.0444 13.6369 17.2791C14.8079 15.8892 16.5314 15.0769 18.3736 15.0769C21.5464 15.0769 24.1692 17.4729 24.5292 20.5494C26.4993 20.9042 28 22.6316 28 24.7033C28 27.0294 26.1077 28.9231 23.7802 28.9231ZM8.21978 22.0659C6.76528 22.0659 5.58242 23.2488 5.58242 24.7033C5.58242 26.1578 6.76528 27.3406 8.21978 27.3406H23.7802C25.2347 27.3406 26.4176 26.1578 26.4176 24.7033C26.4176 23.2488 25.2347 22.0659 23.7802 22.0659C23.3437 22.0659 22.989 21.7112 22.989 21.2747C22.989 18.7297 20.9187 16.6593 18.3736 16.6593C16.8202 16.6593 15.3802 17.4347 14.5218 18.7323C14.2818 19.0962 13.7925 19.1965 13.4273 18.9578C12.9763 18.6624 12.4514 18.5055 11.9108 18.5055C10.3837 18.5055 9.14154 19.7477 9.14154 21.2747C9.14154 21.7112 8.78681 22.0659 8.35033 22.0659H8.21846H8.21978Z" fill="currentColor"/>
</svg>