<svg xmlns="http://www.w3.org/2000/svg" width="32" height="32" viewBox="0 4 32 32" fill="none">
<g>
<path d="M27.0234 17.7364L23.5398 15.7367C22.9247 15.3844 22.5452 14.7307 22.5434 14.0217L22.5329 10.0055C22.5311 9.29651 22.9072 8.64107 23.5204 8.28524L26.9944 6.26796C27.6068 5.91212 28.3633 5.91036 28.9783 6.26269L32.462 8.26239C33.077 8.61559 33.4566 9.26927 33.4583 9.97743L33.468 13.9935C33.4698 14.7017 33.0937 15.358 32.4804 15.7138L29.0073 17.7311C28.3949 18.087 27.6385 18.0887 27.0234 17.7364Z" fill="#FFD24B"/>
<path d="M29.0829 11.5335L28.0004 9.75867L26.918 11.5335C26.7642 11.7865 26.419 11.8392 26.1958 11.645L24.8963 10.5116L25.4209 13.0991C25.4472 13.2283 25.5606 13.3214 25.6932 13.3214H30.3085C30.4403 13.3214 30.5546 13.2283 30.5809 13.0991L31.1054 10.5116L29.806 11.645C29.5828 11.8401 29.2384 11.7865 29.0838 11.5335H29.0829Z" fill="#231F20"/>
<path d="M28.0057 10.2296C28.275 10.2296 28.4933 10.0113 28.4933 9.74196C28.4933 9.47265 28.275 9.25433 28.0057 9.25433C27.7364 9.25433 27.5181 9.47265 27.5181 9.74196C27.5181 10.0113 27.7364 10.2296 28.0057 10.2296Z" fill="#231F20"/>
<path d="M31.0307 11.1266C31.3001 11.1266 31.5184 10.9083 31.5184 10.639C31.5184 10.3697 31.3001 10.1514 31.0307 10.1514C30.7614 10.1514 30.5431 10.3697 30.5431 10.639C30.5431 10.9083 30.7614 11.1266 31.0307 11.1266Z" fill="#231F20"/>
<path d="M24.9693 11.1266C25.2386 11.1266 25.4569 10.9083 25.4569 10.639C25.4569 10.3697 25.2386 10.1514 24.9693 10.1514C24.6999 10.1514 24.4816 10.3697 24.4816 10.639C24.4816 10.9083 24.6999 11.1266 24.9693 11.1266Z" fill="#231F20"/>
<path d="M30.204 13.744H25.796C25.6087 13.744 25.4569 13.8959 25.4569 14.0832V14.084C25.4569 14.2713 25.6087 14.4232 25.796 14.4232H30.204C30.3913 14.4232 30.5431 14.2713 30.5431 14.084V14.0832C30.5431 13.8959 30.3913 13.744 30.204 13.744Z" fill="#231F20"/>
</g>
<g>
<path d="M23.7802 28.9231H8.21978C5.89231 28.9231 4 27.0294 4 24.7033C4 22.5789 5.57846 20.8145 7.62506 20.5257C7.9811 18.4817 9.76791 16.9231 11.9121 16.9231C12.5095 16.9231 13.0949 17.0444 13.6369 17.2791C14.8079 15.8892 16.5314 15.0769 18.3736 15.0769C21.5464 15.0769 24.1692 17.4729 24.5292 20.5494C26.4993 20.9042 28 22.6316 28 24.7033C28 27.0294 26.1077 28.9231 23.7802 28.9231ZM8.21978 22.0659C6.76528 22.0659 5.58242 23.2488 5.58242 24.7033C5.58242 26.1578 6.76528 27.3406 8.21978 27.3406H23.7802C25.2347 27.3406 26.4176 26.1578 26.4176 24.7033C26.4176 23.2488 25.2347 22.0659 23.7802 22.0659C23.3437 22.0659 22.989 21.7112 22.989 21.2747C22.989 18.7297 20.9187 16.6593 18.3736 16.6593C16.8202 16.6593 15.3802 17.4347 14.5218 18.7323C14.2818 19.0962 13.7925 19.1965 13.4273 18.9578C12.9763 18.6624 12.4514 18.5055 11.9108 18.5055C10.3837 18.5055 9.14154 19.7477 9.14154 21.2747C9.14154 21.7112 8.78681 22.0659 8.35033 22.0659H8.21846H8.21978Z" fill="currentColor"/>
</g>
</svg>