<svg width="1em" height="1em" viewBox="0 0 30 30" fill="none" xmlns="http://www.w3.org/2000/svg">
  <g>
    <path
      d="M4.2386 20.7374C3.85465 20.7374 3.50504 20.5002 3.36457 20.1381C3.36145 20.1256 3.25532 19.8478 3.09612 19.3483C2.94005 18.8551 3.21162 18.3276 3.70482 18.1715C4.19802 18.0154 4.72555 18.287 4.88163 18.7802C4.88475 18.7927 4.891 18.8052 4.89412 18.8177H4.95343C5.46848 18.774 5.91797 19.1673 5.95231 19.6823C5.98977 20.1974 5.59958 20.6469 5.08453 20.6812L4.30727 20.7343C4.28542 20.7343 4.26357 20.7343 4.24172 20.7343L4.2386 20.7374ZM7.20092 20.5314L8.52444 20.4377C9.03949 20.4003 9.42968 19.9539 9.39222 19.4388C9.35476 18.9238 8.91463 18.5367 8.39334 18.5711L7.06981 18.6647C6.55476 18.7022 6.16457 19.1485 6.20203 19.6636C6.23637 20.1568 6.64841 20.5345 7.13537 20.5345C7.15722 20.5345 7.17907 20.5345 7.20092 20.5345V20.5314ZM10.6408 20.291L11.4181 20.2379C11.7927 20.213 12.1142 19.9632 12.2359 19.6105C12.2359 19.6105 12.3389 19.3171 12.4856 18.8301C12.6355 18.3338 12.3545 17.8125 11.8582 17.6627C11.3619 17.5129 10.8406 17.7938 10.6908 18.2901C10.6783 18.3338 10.6658 18.3744 10.6533 18.4119L10.5066 18.4212C9.99155 18.4587 9.60136 18.9051 9.63882 19.4201C9.67316 19.9133 10.0852 20.291 10.5722 20.291C10.594 20.291 10.6159 20.291 10.6377 20.291H10.6408ZM3.55499 17.6003C4.05755 17.4848 4.37282 16.9791 4.25733 16.4765C4.14807 15.9989 4.04506 15.5088 3.95142 15.0188C3.85465 14.51 3.3677 14.176 2.85889 14.2727C2.35008 14.3695 2.01608 14.8565 2.11285 15.3653C2.20961 15.8803 2.31887 16.3985 2.43436 16.901C2.53425 17.3349 2.92132 17.6252 3.34584 17.6252C3.41452 17.6252 3.48631 17.6159 3.55811 17.6003H3.55499ZM13.1131 16.3829C13.2254 15.8397 13.3191 15.3122 13.3878 14.8127C13.4596 14.3008 13.1006 13.8263 12.5887 13.7577C12.0767 13.6859 11.6023 14.0449 11.5336 14.5568C11.4712 15.0125 11.3869 15.4995 11.2807 15.9989C11.1746 16.5046 11.4992 17.0009 12.0049 17.1071C12.0705 17.1195 12.1329 17.1258 12.1985 17.1258C12.6324 17.1258 13.0225 16.823 13.1131 16.3797V16.3829ZM2.72466 13.7046C3.23971 13.6734 3.63615 13.2301 3.60493 12.7151C3.59869 12.5996 3.59557 12.4872 3.59557 12.3748C3.59557 12.0502 3.62366 11.7256 3.67985 11.4165C3.77349 10.9077 3.43637 10.4208 2.92756 10.3271C2.41875 10.2366 1.9318 10.5706 1.83815 11.0794C1.76011 11.4977 1.72266 11.9347 1.72266 12.3717C1.72266 12.5216 1.72578 12.6714 1.73514 12.8243C1.76324 13.3207 2.1784 13.7046 2.66848 13.7046C2.6872 13.7046 2.70593 13.7046 2.72466 13.7046ZM12.6386 13.1771C13.1536 13.149 13.5532 12.7088 13.5251 12.1938C13.5189 12.0908 13.5126 11.9878 13.5033 11.8848C13.4627 11.4228 13.3909 10.9639 13.2879 10.5175C13.1693 10.015 12.6667 9.6997 12.1641 9.81832C11.6616 9.93694 11.3463 10.4395 11.4649 10.9421C11.5492 11.301 11.6085 11.6725 11.6397 12.0471C11.646 12.1282 11.6522 12.2094 11.6553 12.2937C11.6803 12.7931 12.0955 13.1802 12.5887 13.1802C12.6043 13.1802 12.623 13.1802 12.6386 13.1802V13.1771ZM4.45398 9.52802C4.69434 9.17529 4.98464 8.84753 5.3124 8.55723C5.69947 8.21386 5.7338 7.62077 5.39356 7.23683C5.05019 6.84976 4.46023 6.81542 4.07316 7.15567C3.6299 7.54898 3.23971 7.99224 2.91195 8.47295C2.62165 8.9006 2.73091 9.48432 3.15855 9.77462C3.32087 9.88387 3.50504 9.93694 3.68609 9.93694C3.98576 9.93694 4.27918 9.79335 4.46023 9.52802H4.45398ZM11.955 9.26581C12.3951 8.99424 12.5325 8.41676 12.2578 7.97663C11.9269 7.43973 11.5429 6.97462 11.1153 6.5938C10.7314 6.25043 10.1383 6.28164 9.79178 6.66871C9.44841 7.05266 9.47962 7.64575 9.86669 7.99223C10.157 8.25132 10.4254 8.57908 10.6627 8.96303C10.8406 9.25021 11.1465 9.40628 11.4587 9.40628C11.6272 9.40628 11.7958 9.36258 11.9487 9.26581H11.955ZM7.09166 7.5084C7.4444 7.38666 7.79401 7.31487 8.10928 7.29926C8.14674 7.29926 8.18107 7.29926 8.21853 7.29926H8.26535C8.78353 7.32423 9.21117 6.90595 9.22678 6.38778C9.23927 5.8696 8.83347 5.44196 8.3153 5.42635H8.22165C8.1561 5.42635 8.09055 5.42635 8.02188 5.42947C7.52556 5.45444 7.01051 5.55745 6.48609 5.73538C5.99601 5.90394 5.73693 6.43772 5.90549 6.92468C6.03971 7.31487 6.40181 7.55834 6.792 7.55834C6.89189 7.55834 6.9949 7.54274 7.09479 7.5084H7.09166ZM4.80671 24.8547C5.27494 24.8235 5.63704 24.452 5.6745 23.9994C6.11775 23.8995 6.43302 23.4874 6.39869 23.0223C6.36123 22.5073 5.91797 22.1171 5.3998 22.1546L4.62255 22.2076C4.37595 22.2264 4.14495 22.3387 3.97951 22.526C3.81719 22.7133 3.73603 22.9568 3.75164 23.2065L3.80471 23.9838C3.83904 24.477 4.25108 24.8547 4.73804 24.8547C4.75989 24.8547 4.78174 24.8547 4.80359 24.8547H4.80671ZM7.7066 23.8683L9.06758 23.7746C9.58263 23.7372 9.97282 23.2908 9.93537 22.7757C9.89791 22.2607 9.45153 21.8705 8.93648 21.908L7.5755 22.0016C7.06045 22.0391 6.67026 22.4854 6.70772 23.0005C6.74205 23.4937 7.15409 23.8714 7.64105 23.8714C7.6629 23.8714 7.68475 23.8714 7.7066 23.8714V23.8683ZM12.0736 24.3459C12.5887 24.3084 12.9788 23.862 12.9414 23.347L12.8883 22.5697C12.8509 22.0547 12.4076 21.6582 11.8894 21.7019L11.1122 21.755C10.5971 21.7925 10.2069 22.2388 10.2444 22.7539C10.2756 23.2221 10.6471 23.5842 11.0997 23.6217C11.1965 24.0431 11.5742 24.349 12.0112 24.349C12.033 24.349 12.0549 24.349 12.0767 24.349L12.0736 24.3459ZM8.74919 28.9907C9.03949 28.9688 9.32667 28.922 9.60136 28.8502C10.1008 28.7191 10.4005 28.2041 10.2662 27.7046C10.1351 27.2052 9.62321 26.9086 9.12065 27.0397C8.95833 27.0834 8.78665 27.1115 8.61496 27.124C8.44328 27.1365 8.2716 27.1303 8.10616 27.1115C7.59735 27.0491 7.126 27.4174 7.06669 27.9294C7.00426 28.4444 7.3726 28.9095 7.88453 28.9688C8.06246 28.9907 8.2435 29 8.42455 29C8.53068 29 8.63994 28.9969 8.74919 28.9876V28.9907ZM6.71708 27.7702C7.06045 27.3831 7.02299 26.79 6.63592 26.4498C6.37684 26.2219 6.1677 25.9503 6.01474 25.6444C5.78063 25.1824 5.21563 24.9983 4.75677 25.2324C4.29479 25.4665 4.11062 26.0284 4.34473 26.4903C4.60694 27.0085 4.96279 27.4674 5.39668 27.8513C5.57461 28.0074 5.79624 28.0854 6.01786 28.0854C6.27695 28.0854 6.53603 27.9793 6.7202 27.7702H6.71708ZM11.9144 27.3925C12.2921 26.9492 12.5793 26.4466 12.7666 25.8941C12.932 25.4041 12.6698 24.8734 12.1829 24.7048C11.6928 24.5394 11.1621 24.7985 10.9936 25.2886C10.8843 25.6132 10.7126 25.9097 10.491 26.1719C10.1539 26.5653 10.2007 27.1552 10.594 27.4923C10.7719 27.6422 10.9873 27.7171 11.2027 27.7171C11.468 27.7171 11.7302 27.6047 11.9144 27.3893V27.3925ZM26.6324 15.7117C26.6324 15.7117 26.7447 15.4214 26.9039 14.922C27.06 14.4288 26.7884 13.9013 26.2952 13.7452C25.802 13.5891 25.2745 13.8607 25.1184 14.3539C25.1153 14.3664 25.1091 14.3789 25.1059 14.3913H25.0435C24.5253 14.3476 24.079 14.741 24.0446 15.256C24.0072 15.7711 24.3974 16.2206 24.9124 16.2549L25.6897 16.308C25.7115 16.308 25.7334 16.308 25.7552 16.308C26.1392 16.308 26.4888 16.0707 26.6292 15.7086L26.6324 15.7117ZM23.798 15.2373C23.8355 14.7222 23.4453 14.2727 22.9302 14.2384L21.6067 14.1447C21.0917 14.1104 20.6422 14.4975 20.6078 15.0125C20.5735 15.5276 20.9606 15.9771 21.4756 16.0114L22.7991 16.1051C22.821 16.1051 22.8428 16.1051 22.8647 16.1051C23.3516 16.1051 23.7637 15.7274 23.798 15.2342V15.2373ZM20.3581 14.9969C20.3956 14.4819 20.0054 14.0324 19.4903 13.998L19.3436 13.9887C19.3311 13.9512 19.3186 13.9106 19.3062 13.8669C19.1563 13.3706 18.635 13.0897 18.1387 13.2395C17.6424 13.3893 17.3615 13.9106 17.5113 14.407C17.658 14.897 17.761 15.1873 17.761 15.1873C17.8859 15.5401 18.2074 15.7867 18.5788 15.8148L19.3561 15.8678C19.378 15.8678 19.3998 15.8678 19.4217 15.8678C19.9086 15.8678 20.3207 15.4901 20.355 14.9969H20.3581ZM27.5688 12.4716C27.6843 11.9722 27.7936 11.4571 27.8903 10.9358C27.9871 10.427 27.65 9.93694 27.1443 9.84329C26.6355 9.74965 26.1454 10.0837 26.0518 10.5893C25.9581 11.0825 25.8551 11.5757 25.7458 12.0471C25.6304 12.5496 25.9425 13.0553 26.4482 13.1708C26.52 13.1864 26.5918 13.1958 26.6604 13.1958C27.085 13.1958 27.472 12.9024 27.5719 12.4716H27.5688ZM17.9951 12.6808C18.5008 12.5746 18.8254 12.0783 18.7193 11.5726C18.6132 11.07 18.5289 10.5862 18.4665 10.1305C18.3947 9.61854 17.9233 9.25957 17.4114 9.33137C16.8995 9.40316 16.5405 9.87451 16.6123 10.3864C16.681 10.8859 16.7746 11.4134 16.887 11.9566C16.9806 12.3998 17.3677 12.7026 17.8016 12.7026C17.864 12.7026 17.9296 12.6964 17.9951 12.6839V12.6808ZM28.2618 8.39803C28.2712 8.24508 28.2743 8.09524 28.2743 7.94541C28.2743 7.50528 28.2368 7.07139 28.1588 6.64998C28.0651 6.14118 27.5751 5.80405 27.0694 5.8977C26.5606 5.99134 26.2234 6.4783 26.3171 6.98711C26.3733 7.29614 26.4014 7.61765 26.4014 7.94541C26.4014 8.05779 26.3982 8.17016 26.392 8.28878C26.3608 8.80383 26.7541 9.24708 27.2723 9.2783C27.291 9.2783 27.3097 9.2783 27.3285 9.2783C27.8217 9.2783 28.2337 8.89435 28.2618 8.39803ZM18.3416 7.86425C18.3447 7.77997 18.351 7.69881 18.3572 7.62077C18.3884 7.24619 18.4477 6.87473 18.532 6.51576C18.6506 6.01319 18.3354 5.50751 17.8328 5.39201C17.3271 5.27652 16.8246 5.58867 16.7091 6.09123C16.606 6.53761 16.5311 6.99647 16.4906 7.46158C16.4812 7.56147 16.4749 7.66448 16.4687 7.77061C16.4406 8.28566 16.8402 8.72891 17.3552 8.75388C17.3708 8.75388 17.3895 8.75388 17.4052 8.75388C17.8984 8.75388 18.3135 8.36682 18.3385 7.86737L18.3416 7.86425ZM26.8446 5.34519C27.2723 5.05489 27.3815 4.47116 27.0912 4.04352C26.7635 3.5628 26.3733 3.11955 25.93 2.72624C25.5429 2.38287 24.9499 2.42033 24.6096 2.8074C24.2662 3.19446 24.3037 3.78755 24.6908 4.1278C25.0185 4.4181 25.3088 4.74586 25.5492 5.09859C25.7302 5.36392 26.0237 5.50751 26.3233 5.50751C26.5044 5.50751 26.6885 5.45444 26.8509 5.34519H26.8446ZM19.3311 4.53359C19.5684 4.14965 19.8368 3.82189 20.1271 3.5628C20.5111 3.21631 20.5454 2.62635 20.202 2.23928C19.8587 1.85221 19.2656 1.821 18.8785 2.16436C18.454 2.54519 18.07 3.01029 17.736 3.5472C17.4645 3.98733 17.5987 4.56481 18.0388 4.83638C18.1918 4.93003 18.3635 4.97685 18.5289 4.97685C18.8442 4.97685 19.1501 4.82077 19.3249 4.53359H19.3311ZM24.0946 2.50149C24.2631 2.01141 24.0009 1.48075 23.514 1.31219C22.9895 1.13114 22.4745 1.02813 21.9782 1.00628C21.9126 1.00316 21.8502 0.996917 21.7909 1.00316C21.7565 1.00316 21.7191 1.00316 21.6848 1.00316C21.1666 1.01565 20.7608 1.44641 20.7733 1.96459C20.7858 2.48276 21.2165 2.89792 21.7347 2.87607H21.7815C21.819 2.87607 21.8533 2.87607 21.8908 2.87607C22.206 2.89168 22.5588 2.96347 22.9084 3.08521C23.0083 3.11955 23.1113 3.13516 23.2112 3.13516C23.6014 3.13516 23.9635 2.89168 24.0977 2.50149H24.0946ZM26.1891 19.5606L26.2422 18.7833C26.2796 18.2683 25.8894 17.8188 25.3744 17.7844L24.5971 17.7314C24.0758 17.6908 23.6326 18.0841 23.5982 18.5991C23.567 19.0674 23.8823 19.4763 24.3224 19.5762C24.3599 20.0288 24.722 20.3971 25.1902 20.4315C25.2121 20.4315 25.2339 20.4315 25.2558 20.4315C25.7427 20.4315 26.1548 20.0538 26.1891 19.5606ZM23.2892 18.5742C23.3267 18.0591 22.9365 17.6096 22.4214 17.5753L21.0605 17.4816C20.5423 17.4473 20.0959 17.8344 20.0616 18.3494C20.0241 18.8645 20.4143 19.314 20.9293 19.3483L22.2903 19.442C22.3122 19.442 22.334 19.442 22.3559 19.442C22.8428 19.442 23.2549 19.0643 23.2892 18.5711V18.5742ZM18.9004 19.1954C19.353 19.1579 19.7213 18.7927 19.7557 18.3276C19.7931 17.8125 19.4029 17.363 18.8879 17.3287L18.1106 17.2756C17.5924 17.235 17.1461 17.6284 17.1117 18.1434L17.0587 18.9207C17.0212 19.4357 17.4114 19.8852 17.9264 19.9195C17.9483 19.9195 17.9701 19.9195 17.992 19.9195C18.4321 19.9195 18.8067 19.6136 18.9035 19.1922L18.9004 19.1954ZM22.1124 24.5456C22.6275 24.4832 22.9927 24.0181 22.9302 23.5062C22.8678 22.9911 22.3996 22.6228 21.8908 22.6883C21.7253 22.7071 21.5536 22.7133 21.382 22.7008C21.2103 22.6883 21.0386 22.6602 20.8763 22.6165C20.3768 22.4854 19.8649 22.782 19.7307 23.2814C19.5965 23.7809 19.8961 24.2928 20.3956 24.427C20.6734 24.5019 20.9606 24.5488 21.2509 24.5675C21.3601 24.5737 21.4662 24.58 21.5755 24.58C21.7565 24.58 21.9376 24.5706 22.1155 24.5488L22.1124 24.5456ZM24.6034 23.4281C25.0404 23.0411 25.3931 22.5822 25.6553 22.0672C25.8894 21.6052 25.7053 21.0433 25.2433 20.8092C24.7813 20.5751 24.2194 20.7592 23.9853 21.2212C23.8292 21.5271 23.6201 21.7987 23.361 22.0266C22.9739 22.3699 22.9365 22.9599 23.2798 23.3501C23.464 23.5592 23.7231 23.6654 23.9822 23.6654C24.2038 23.6654 24.4254 23.5873 24.6034 23.4313V23.4281ZM19.406 23.0754C19.7994 22.7414 19.8462 22.1483 19.5122 21.755C19.2874 21.4928 19.1189 21.1962 19.0096 20.8685C18.8442 20.3784 18.3104 20.1162 17.8203 20.2848C17.3302 20.4502 17.068 20.984 17.2366 21.4741C17.4239 22.0235 17.7111 22.5291 18.0888 22.9693C18.2729 23.1878 18.5383 23.297 18.8005 23.297C19.0159 23.297 19.2312 23.2221 19.4092 23.0723L19.406 23.0754Z"
      fill="currentColor"
    />
  </g>
</svg>
