<svg xmlns="http://www.w3.org/2000/svg" xmlns:xlink="http://www.w3.org/1999/xlink" width="1em" height="1em" viewBox="0 0 48 48">
  <path id="Path_75" data-name="Path 75" d="M.5,29.586v3.065H2.172v1.512H3.89v3.471h6.423V34.163h4.194V29.586" transform="translate(11.851 4.933)" fill="none" stroke="#4b4b4b" stroke-linecap="round" stroke-linejoin="round" stroke-width="1"/>
  <path id="Path_77" data-name="Path 77" d="M21.5,34.163H2.172V32.651H.5V1.912H2.172V.5H16.848A4.648,4.648,0,0,1,21.5,5.149Z" transform="translate(11.851 4.933)" fill="none" stroke="#4b4b4b" stroke-linecap="round" stroke-linejoin="round" stroke-width="1"/>
  <path id="Path_78" data-name="Path 78" d="M21.6,8.868h1.066a.3.3,0,0,1,.271.176l.837,1.907a.3.3,0,0,1-.067.332l-2.262,2.145" transform="translate(11.851 4.933)" fill="none" stroke="#4b4b4b" stroke-linecap="round" stroke-linejoin="round" stroke-width="0.7"/>
  <path id="Path_6640" data-name="Path 6640" d="M14.507,34.163V26.485H21.5" transform="translate(11.851 4.933)" fill="none" stroke="#4b4b4b" stroke-linecap="round" stroke-linejoin="round" stroke-width="1"/>
</svg>
