<svg width="32" height="32" viewBox="0 0 32 32" fill="none" xmlns="http://www.w3.org/2000/svg">
<path d="M6.92007 13.0747C7.33459 11.7982 8.01745 10.6265 8.91846 9.63348C9.07081 9.46556 9.30985 9.40571 9.52386 9.48191L11.6771 10.2485C12.2609 10.4562 12.9032 10.1534 13.1118 9.57214C13.1323 9.51498 13.1481 9.45626 13.159 9.39665L13.5693 7.15464C13.61 6.93173 13.782 6.7554 14.0046 6.70821C14.6558 6.5702 15.3236 6.5 16 6.5C16.6761 6.5 17.3434 6.57012 17.9943 6.70796C18.2168 6.7551 18.3888 6.93132 18.4296 7.15415L18.841 9.39655C18.9522 10.0038 19.5367 10.4063 20.1467 10.2956C20.2067 10.2847 20.2656 10.2689 20.3229 10.2485L22.4762 9.48191C22.6902 9.40571 22.9292 9.46556 23.0815 9.63348C23.9826 10.6265 24.6654 11.7982 25.0801 13.0747C25.1499 13.2901 25.0824 13.5262 24.9092 13.6726L23.1639 15.148C22.6914 15.5476 22.6336 16.2529 23.0348 16.7234C23.0743 16.7697 23.1175 16.8127 23.1639 16.8519L24.9092 18.3273C25.0824 18.4738 25.1499 18.7099 25.0801 18.9253C24.6654 20.2018 23.9826 21.3736 23.0815 22.3665C22.9292 22.5344 22.6902 22.5942 22.4762 22.5181L20.3229 21.7515C19.7393 21.5438 19.0969 21.8467 18.8883 22.4278C18.8677 22.485 18.8519 22.5437 18.841 22.6036L18.4296 24.8459C18.3888 25.0687 18.2168 25.2448 17.9943 25.292C17.3434 25.4298 16.6761 25.5 16 25.5C15.3236 25.5 14.6558 25.4298 14.0046 25.2917C13.782 25.2445 13.61 25.0682 13.5693 24.8454L13.1591 22.6034C13.0478 21.9962 12.4633 21.5937 11.8534 21.7044C11.7935 21.7154 11.7345 21.731 11.6772 21.7515L9.52386 22.5181C9.30985 22.5942 9.07081 22.5344 8.91846 22.3665C8.01745 21.3736 7.33459 20.2018 6.92007 18.9253C6.85014 18.7099 6.91756 18.4738 7.09085 18.3273L8.83611 16.8519C9.30866 16.4524 9.36645 15.7471 8.96521 15.2766C8.92576 15.2303 8.88258 15.1873 8.83613 15.1481L7.09085 13.6726C6.91756 13.5262 6.85014 13.2901 6.92007 13.0747ZM13.2281 15.9999C13.2281 17.5307 14.469 18.7717 15.9998 18.7717C17.5306 18.7717 18.7716 17.5307 18.7716 15.9999C18.7716 14.4691 17.5306 13.2281 15.9998 13.2281C14.469 13.2281 13.2281 14.4691 13.2281 15.9999Z" fill="currentColor"/>
</svg>
