<svg width="1em" height="1em" viewBox="0 0 32 32" fill="none" xmlns="http://www.w3.org/2000/svg">
<path d="M9.63364 8.63121L7.55483 6.5524H8.98401C9.30782 6.5524 9.56967 6.29055 9.56967 5.96673C9.56967 5.64292 9.30782 5.38107 8.98401 5.38107H6.08567C5.76185 5.38107 5.5 5.64292 5.5 5.96673V8.81111C5.5 9.13492 5.76185 9.39677 6.08567 9.39677C6.40948 9.39677 6.67133 9.13492 6.67133 8.81111V7.32595L8.80611 9.46073C8.92005 9.57467 9.06996 9.63264 9.21987 9.63264C9.36979 9.63264 9.5197 9.57467 9.63364 9.46073C9.86151 9.23286 9.86151 8.86108 9.63364 8.63121Z" fill="currentColor"/>
<path d="M9.63364 22.5393C9.40577 22.3114 9.03398 22.3114 8.80611 22.5393L6.67133 24.674V23.1889C6.67133 22.8651 6.40948 22.6032 6.08567 22.6032C5.76185 22.6032 5.5 22.8651 5.5 23.1889V26.0333C5.5 26.3571 5.76185 26.6189 6.08567 26.6189H8.98601C9.30982 26.6189 9.57167 26.3571 9.57167 26.0333C9.57167 25.7095 9.30982 25.4476 8.98601 25.4476H7.55682L9.63564 23.3688C9.86351 23.1409 9.86351 22.7691 9.63564 22.5393H9.63364Z" fill="currentColor"/>
<path d="M25.9144 5.38107H23.014C22.6902 5.38107 22.4283 5.64292 22.4283 5.96673C22.4283 6.29055 22.6902 6.5524 23.014 6.5524H24.4432L22.3644 8.63121C22.1365 8.85908 22.1365 9.23087 22.3644 9.46073C22.4783 9.57467 22.6282 9.63264 22.7781 9.63264C22.9281 9.63264 23.078 9.57467 23.1919 9.46073L25.3267 7.32595V8.81111C25.3267 9.13492 25.5885 9.39677 25.9124 9.39677C26.2362 9.39677 26.498 9.13492 26.498 8.81111V5.96673C26.498 5.64292 26.2362 5.38107 25.9124 5.38107H25.9144Z" fill="currentColor"/>
<path d="M25.9143 22.6032C25.5905 22.6032 25.3286 22.8651 25.3286 23.1889V24.674L23.1939 22.5393C22.966 22.3114 22.5942 22.3114 22.3663 22.5393C22.1385 22.7671 22.1385 23.1389 22.3663 23.3688L24.4451 25.4476H23.016C22.6922 25.4476 22.4303 25.7095 22.4303 26.0333C22.4303 26.3571 22.6922 26.6189 23.016 26.6189H25.9163C26.2401 26.6189 26.502 26.3571 26.502 26.0333V23.1889C26.502 22.8651 26.2401 22.6032 25.9163 22.6032H25.9143Z" fill="currentColor"/>
<path d="M16.2499 8.22944C11.7245 8.22944 8.05457 11.8993 8.05457 16.4248C8.05457 20.9502 11.5686 24.6201 16.096 24.6201C17.0234 24.6201 17.6631 24.1423 17.797 23.5367C18.1068 22.1455 16.3378 21.7997 17.0234 20.5984C17.6411 19.515 19.8898 20.6344 21.8167 19.6709C23.6716 18.7434 24.2913 17.816 24.4452 16.4228C24.9929 11.4956 20.7753 8.22744 16.2499 8.22744V8.22944ZM11.2248 16.4248C10.4992 16.4248 9.90951 15.8371 9.90951 15.1095C9.90951 14.3819 10.4972 13.7943 11.2248 13.7943C11.9523 13.7943 12.54 14.3819 12.54 15.1095C12.54 15.8371 11.9523 16.4248 11.2248 16.4248ZM14.0072 12.7129C13.2816 12.7129 12.6919 12.1252 12.6919 11.3976C12.6919 10.67 13.2796 10.0824 14.0072 10.0824C14.7347 10.0824 15.3224 10.67 15.3224 11.3976C15.3224 12.1252 14.7347 12.7129 14.0072 12.7129ZM18.6465 12.7129C17.9209 12.7129 17.3313 12.1252 17.3313 11.3976C17.3313 10.67 17.9189 10.0824 18.6465 10.0824C19.3741 10.0824 19.9618 10.67 19.9618 11.3976C19.9618 12.1252 19.3741 12.7129 18.6465 12.7129ZM21.4289 16.4248C20.7033 16.4248 20.1137 15.8371 20.1137 15.1095C20.1137 14.3819 20.7013 13.7943 21.4289 13.7943C22.1565 13.7943 22.7442 14.3819 22.7442 15.1095C22.7442 15.8371 22.1565 16.4248 21.4289 16.4248Z" fill="currentColor"/>
</svg>
