<svg width="1em" height="1em" viewBox="0 0 32 32" fill="none" xmlns="http://www.w3.org/2000/svg">
<path d="M5.67191 6.38049L7.75073 8.45931H6.32154C5.99773 8.45931 5.73588 8.72116 5.73588 9.04497C5.73588 9.36879 5.99773 9.63064 6.32154 9.63064H9.22188C9.5457 9.63064 9.80755 9.36879 9.80755 9.04497V6.2026C9.80755 5.87878 9.5457 5.61693 9.22188 5.61693C8.89807 5.61693 8.63622 5.87878 8.63622 6.2026V7.68775L6.49944 5.55297C6.38551 5.43903 6.23559 5.38107 6.08568 5.38107C5.93576 5.38107 5.78585 5.43903 5.67191 5.55297C5.44204 5.78084 5.44204 6.15262 5.67191 6.38049Z" fill="currentColor"/>
<path d="M5.67188 26.447C5.89975 26.6749 6.27154 26.6749 6.49941 26.447L8.63419 24.3123V25.7974C8.63419 26.1212 8.89604 26.3831 9.21985 26.3831C9.54367 26.3831 9.80552 26.1212 9.80552 25.7974V22.953C9.80552 22.6292 9.54367 22.3674 9.21985 22.3674H6.32151C5.99769 22.3674 5.73584 22.6292 5.73584 22.953C5.73584 23.2768 5.99769 23.5387 6.32151 23.5387H7.75069L5.67188 25.6195C5.44401 25.8474 5.44401 26.2192 5.67188 26.449V26.447Z" fill="currentColor"/>
<path d="M22.7801 9.63064H25.6804C26.0042 9.63064 26.2661 9.36879 26.2661 9.04497C26.2661 8.72116 26.0042 8.45931 25.6804 8.45931H24.2512L26.33 6.38049C26.5579 6.15262 26.5579 5.78084 26.33 5.55097C26.2161 5.43703 26.0662 5.37907 25.9163 5.37907C25.7664 5.37907 25.6165 5.43703 25.5025 5.55097L23.3677 7.68575V6.2006C23.3677 5.87678 23.1059 5.61493 22.7821 5.61493C22.4583 5.61493 22.1964 5.87678 22.1964 6.2006V9.04497C22.1964 9.36879 22.4583 9.63064 22.7821 9.63064H22.7801Z" fill="currentColor"/>
<path d="M22.7802 26.3831C23.104 26.3831 23.3658 26.1212 23.3658 25.7974V24.3123L25.5006 26.447C25.7285 26.6749 26.1003 26.6749 26.3281 26.447C26.556 26.2192 26.556 25.8474 26.3281 25.6175L24.2493 23.5387H25.6785C26.0023 23.5387 26.2642 23.2768 26.2642 22.953C26.2642 22.6292 26.0023 22.3674 25.6785 22.3674H22.7782C22.4544 22.3674 22.1925 22.6292 22.1925 22.953V25.7974C22.1925 26.1212 22.4544 26.3831 22.7782 26.3831H22.7802Z" fill="currentColor"/>
<path d="M16.2499 8.22944C11.7245 8.22944 8.05457 11.8993 8.05457 16.4248C8.05457 20.9502 11.5686 24.6201 16.096 24.6201C17.0234 24.6201 17.6631 24.1423 17.797 23.5367C18.1068 22.1455 16.3378 21.7997 17.0234 20.5984C17.6411 19.515 19.8898 20.6344 21.8167 19.6709C23.6716 18.7434 24.2913 17.816 24.4452 16.4228C24.9929 11.4956 20.7753 8.22744 16.2499 8.22744V8.22944ZM11.2248 16.4248C10.4992 16.4248 9.90951 15.8371 9.90951 15.1095C9.90951 14.3819 10.4972 13.7943 11.2248 13.7943C11.9523 13.7943 12.54 14.3819 12.54 15.1095C12.54 15.8371 11.9523 16.4248 11.2248 16.4248ZM14.0072 12.7129C13.2816 12.7129 12.6919 12.1252 12.6919 11.3976C12.6919 10.67 13.2796 10.0824 14.0072 10.0824C14.7347 10.0824 15.3224 10.67 15.3224 11.3976C15.3224 12.1252 14.7347 12.7129 14.0072 12.7129ZM18.6465 12.7129C17.9209 12.7129 17.3313 12.1252 17.3313 11.3976C17.3313 10.67 17.9189 10.0824 18.6465 10.0824C19.3741 10.0824 19.9618 10.67 19.9618 11.3976C19.9618 12.1252 19.3741 12.7129 18.6465 12.7129ZM21.4289 16.4248C20.7033 16.4248 20.1137 15.8371 20.1137 15.1095C20.1137 14.3819 20.7013 13.7943 21.4289 13.7943C22.1565 13.7943 22.7442 14.3819 22.7442 15.1095C22.7442 15.8371 22.1565 16.4248 21.4289 16.4248Z" fill="currentColor"/>
</svg>
