<svg width="32" height="32" viewBox="0 0 32 32" fill="none" xmlns="http://www.w3.org/2000/svg">
<g clip-path="url(#clip0_383_3639)">
<path d="M8.91374 26.1233C8.67737 26.129 8.44842 26.0407 8.27711 25.8778C8.10579 25.7148 8.00612 25.4905 8 25.2542V7.86941C8.00612 7.63305 8.10579 7.40879 8.27711 7.24584C8.44842 7.08289 8.67737 6.99458 8.91374 7.00029C9.03082 6.99732 9.14731 7.01745 9.25661 7.05953C9.3659 7.10161 9.46584 7.1648 9.5507 7.24552C9.63556 7.32623 9.70366 7.42287 9.75115 7.52992C9.79865 7.63697 9.82459 7.75233 9.82748 7.86941V25.2563C9.82109 25.4924 9.72131 25.7163 9.54999 25.8788C9.37867 26.0414 9.14983 26.1293 8.91374 26.1233Z" fill="currentColor"/>
<path d="M23.3458 26.1233C23.1094 26.129 22.8805 26.0407 22.7092 25.8778C22.5379 25.7148 22.4382 25.4905 22.4321 25.2542V7.86941C22.4382 7.63305 22.5379 7.40879 22.7092 7.24584C22.8805 7.08289 23.1094 6.99458 23.3458 7.00029C23.4629 6.99732 23.5794 7.01745 23.6887 7.05953C23.798 7.10161 23.8979 7.1648 23.9828 7.24552C24.0676 7.32623 24.1357 7.42287 24.1832 7.52992C24.2307 7.63697 24.2567 7.75233 24.2596 7.86941V25.2563C24.2532 25.4924 24.1534 25.7163 23.9821 25.8788C23.8107 26.0414 23.5819 26.1293 23.3458 26.1233Z" fill="currentColor"/>
<path d="M18.2086 8.54089H14.0499C13.7565 8.54089 13.5186 8.77874 13.5186 9.07215V24.0546C13.5186 24.348 13.7565 24.5858 14.0499 24.5858H18.2086C18.502 24.5858 18.7398 24.348 18.7398 24.0546V9.07215C18.7398 8.77874 18.502 8.54089 18.2086 8.54089Z" fill="currentColor"/>
</g>
</svg>
