<svg width="32" height="32" viewBox="0 0 32 32" fill="none" xmlns="http://www.w3.org/2000/svg">
<g mask="url(#mask0_383_3475)">
<path d="M9.97005 17.533V21.4835C9.97005 21.7769 10.2079 22.0147 10.5013 22.0147H23.6073C23.9007 22.0147 24.1386 21.7769 24.1386 21.4835V17.533C24.1386 17.2396 23.9007 17.0018 23.6073 17.0018H10.5013C10.2079 17.0018 9.97005 17.2396 9.97005 17.533Z" fill="currentColor"/>
<path d="M9.97005 10.0158V13.9662C9.97005 14.2596 10.2079 14.4974 10.5013 14.4974H19.4636C19.757 14.4974 19.9948 14.2596 19.9948 13.9662V10.0158C19.9948 9.72237 19.757 9.48452 19.4636 9.48452H10.5013C10.2079 9.48452 9.97005 9.72237 9.97005 10.0158Z" fill="currentColor"/>
<path d="M8.2318 25.3127C8.4624 25.3124 8.68347 25.2206 8.84643 25.0574C9.00939 24.8943 9.10093 24.6731 9.10093 24.4425L9.10093 7.05667C9.10093 6.94253 9.07845 6.82951 9.03477 6.72406C8.99109 6.61861 8.92707 6.5228 8.84637 6.44209C8.76566 6.36139 8.66985 6.29737 8.5644 6.25369C8.45895 6.21001 8.34593 6.18753 8.2318 6.18753C8.00119 6.18753 7.78001 6.27907 7.61685 6.44203C7.45369 6.605 7.36188 6.82606 7.3616 7.05667L7.3616 24.4425C7.36188 24.6732 7.45366 24.8944 7.61679 25.0575C7.77992 25.2206 8.00109 25.3124 8.2318 25.3127Z" fill="currentColor"/>
</g>
</svg>
