<svg width="32" height="32" viewBox="0 0 32 32" fill="none" xmlns="http://www.w3.org/2000/svg">
<g clip-path="url(#clip1_385_3759)">
<path d="M24.53 25.38H7.85C7.38 25.38 7 25 7 24.53V7.85C7 7.38 7.38 7 7.85 7C8.32 7 8.7 7.38 8.7 7.85V23.68H24.53C25 23.68 25.38 24.06 25.38 24.53C25.38 25 25 25.38 24.53 25.38Z" fill="currentColor"/>
<path d="M11.45 21.22C11.02 21.22 10.65 20.9 10.61 20.46C10.56 19.99 10.9 19.57 11.36 19.52C15.85 19.04 16.73 16.89 17.75 14.4C18.71 12.06 19.8 9.40999 24.04 8.52999C24.5 8.42999 24.95 8.72999 25.04 9.18999C25.13 9.64999 24.84 10.1 24.38 10.19C21.02 10.89 20.23 12.81 19.31 15.04C18.24 17.65 17.02 20.61 11.53 21.2C11.5 21.2 11.47 21.2 11.44 21.2L11.45 21.22Z" fill="currentColor"/>
</g>
</svg>
