<svg width="32" height="32" viewBox="0 0 32 32" fill="none" xmlns="http://www.w3.org/2000/svg">
<g mask="url(#mask0_143_2825)">
<path d="M8.68916 22.4024V19.011H6.99997V22.4024C7.00215 23.091 7.27667 23.7507 7.76356 24.2376C8.25046 24.7245 8.91019 24.999 9.59875 25.0012H13.0079V23.3131H9.59875C9.47874 23.3133 9.35985 23.2898 9.24893 23.244C9.13801 23.1982 9.03724 23.1309 8.95232 23.0461C8.8674 22.9613 8.80001 22.8606 8.75405 22.7498C8.70809 22.6389 8.6844 22.5201 8.6844 22.4L8.68916 22.4024Z" fill="#5D5D5D"/>
<path d="M23.3249 22.4024C23.3254 22.5223 23.3022 22.6411 23.2568 22.752C23.2113 22.8629 23.1444 22.9637 23.0599 23.0487C22.9755 23.1337 22.875 23.2013 22.7644 23.2475C22.6538 23.2937 22.5352 23.3176 22.4154 23.3179H19.0476V25.0071H22.3965C23.0851 25.0049 23.7448 24.7304 24.2317 24.2435C24.7186 23.7566 24.993 23.0969 24.9952 22.4083V19.0157H23.3072L23.3249 22.4024Z" fill="#5D5D5D"/>
<path d="M22.4095 6.99292H19.0464V8.68213H22.3953C22.5153 8.68182 22.6342 8.70516 22.7452 8.75084C22.8561 8.79651 22.957 8.86362 23.0421 8.94832C23.1271 9.03301 23.1946 9.13364 23.2407 9.24444C23.2868 9.35524 23.3106 9.47404 23.3108 9.59405V12.9878H25V9.59643C25.0034 8.91145 24.7349 8.25308 24.2535 7.76585C23.772 7.27862 23.1169 7.00233 22.4319 6.99764L22.4095 6.99292Z" fill="#5D5D5D"/>
<path d="M8.68916 9.59643C8.689 9.47642 8.71248 9.35754 8.7583 9.24662C8.80412 9.1357 8.87141 9.03491 8.95621 8.94999C9.04102 8.86508 9.14167 8.7977 9.25254 8.75174C9.3634 8.70578 9.48227 8.68213 9.60228 8.68213H13.0125V6.99292H9.60344C8.91487 6.9951 8.25514 7.2696 7.76825 7.7565C7.28136 8.24339 7.00683 8.90312 7.00465 9.59169V12.9831H8.69392L8.68916 9.59643Z" fill="#5D5D5D"/>
<path d="M10.0393 15.1696V16.8588H11.8112C12.0131 17.8545 12.5534 18.7496 13.3404 19.392C14.1275 20.0345 15.1127 20.3846 16.1286 20.3829C17.1446 20.3813 18.1286 20.0279 18.9136 19.3829C19.6985 18.7378 20.2359 17.8409 20.4344 16.8446H22.1933V15.1554L10.0393 15.1696Z" fill="#5D5D5D" stroke="#5D5D5D" stroke-width="0.1" stroke-linecap="round" stroke-linejoin="round"/>
<path d="M19.1445 13.7048C19.1765 13.7461 19.217 13.7801 19.2633 13.8043C19.3095 13.8286 19.3605 13.8426 19.4127 13.8454C19.4751 13.8429 19.5357 13.8235 19.5881 13.7893C19.6404 13.7551 19.6825 13.7073 19.7099 13.6511C19.7373 13.5949 19.7489 13.5323 19.7436 13.47C19.7383 13.4077 19.7162 13.348 19.6796 13.2973C19.3906 12.9003 19.0387 12.5532 18.6377 12.2696C18.6008 12.2421 18.5587 12.2224 18.514 12.2115C18.4693 12.2005 18.423 12.1987 18.3775 12.2061C18.3321 12.2135 18.2886 12.2299 18.2496 12.2544C18.2107 12.2789 18.1771 12.3109 18.1507 12.3486C18.1244 12.3864 18.1059 12.429 18.0964 12.474C18.0868 12.519 18.0863 12.5655 18.0951 12.6106C18.1038 12.6558 18.1215 12.6988 18.1472 12.737C18.1728 12.7752 18.2059 12.8079 18.2444 12.8331C18.5907 13.0717 18.8949 13.3663 19.1445 13.7048Z" fill="#969595"/>
<path d="M15.922 12.1716C16.3354 12.1477 16.7498 12.1952 17.147 12.3121C17.1784 12.3249 17.2125 12.3298 17.2462 12.3263C17.318 12.3254 17.3877 12.3021 17.4457 12.2598C17.5037 12.2175 17.5471 12.1582 17.5699 12.0901C17.5821 12.0469 17.5857 12.0017 17.5805 11.9571C17.5752 11.9125 17.5612 11.8694 17.5392 11.8302C17.5173 11.791 17.4879 11.7566 17.4526 11.7288C17.4173 11.701 17.3768 11.6805 17.3336 11.6684C16.8618 11.5398 16.3725 11.4875 15.8842 11.5136C15.7956 11.5213 15.7132 11.562 15.6533 11.6277C15.5933 11.6933 15.5602 11.7791 15.5606 11.868C15.5672 11.9557 15.6081 12.0374 15.6744 12.0953C15.7407 12.1532 15.8271 12.1827 15.9149 12.1775L15.922 12.1716Z" fill="#969595"/>
<path d="M13.4308 13.1708C13.513 13.1709 13.5926 13.1416 13.6552 13.0881C13.9645 12.8093 14.3224 12.5898 14.7112 12.4408C14.7933 12.4071 14.8586 12.3422 14.8928 12.2603C14.9271 12.1785 14.9274 12.0864 14.8937 12.0043C14.86 11.9222 14.7952 11.8569 14.7133 11.8227C14.6315 11.7884 14.5393 11.7881 14.4572 11.8218C14.0049 12.0087 13.5873 12.2702 13.2217 12.5955C13.1552 12.6542 13.1145 12.7367 13.1085 12.8252C13.1026 12.9137 13.1317 13.0009 13.1897 13.068C13.2199 13.1018 13.2572 13.1285 13.2988 13.1463C13.3405 13.164 13.3855 13.1724 13.4308 13.1708Z" fill="#969595"/>
<path d="M20.4687 15.1342H19.7599L19.6902 14.8046C19.6764 14.7622 19.6714 14.7174 19.6752 14.673C19.6791 14.6285 19.6918 14.5853 19.7126 14.5459C19.7559 14.4664 19.8291 14.4074 19.9159 14.3817C19.9496 14.3715 19.9846 14.3663 20.0198 14.3664C20.0912 14.366 20.1608 14.3888 20.2181 14.4315C20.2754 14.4741 20.3174 14.5341 20.3376 14.6026C20.3931 14.7722 20.4345 14.946 20.4616 15.1224L20.4687 15.1342ZM11.7711 15.146L11.7841 15.0846C11.8784 14.6006 12.0495 14.1348 12.2908 13.7048C12.3195 13.6526 12.3614 13.6089 12.4125 13.5782C12.4635 13.5475 12.5218 13.5309 12.5814 13.53C12.6425 13.5309 12.7023 13.5476 12.7551 13.5785C12.7934 13.5986 12.8274 13.6261 12.8551 13.6594C12.8828 13.6927 12.9036 13.7311 12.9164 13.7725C12.9293 13.8139 12.9338 13.8573 12.9298 13.9005C12.9259 13.9436 12.9135 13.9855 12.8933 14.0238L12.8815 14.0439C12.6911 14.392 12.5541 14.7667 12.4751 15.1555L11.7711 15.146Z" fill="#969595"/>
</g>
<g mask="url(#mask1_143_2825)">
<path d="M8.68916 22.4024V19.011H6.99997V22.4024C7.00215 23.091 7.27667 23.7507 7.76356 24.2376C8.25046 24.7245 8.91019 24.999 9.59875 25.0012H13.0079V23.3131H9.59875C9.47874 23.3133 9.35985 23.2898 9.24893 23.244C9.13801 23.1982 9.03724 23.1309 8.95232 23.0461C8.8674 22.9613 8.80001 22.8606 8.75405 22.7498C8.70809 22.6389 8.6844 22.5201 8.6844 22.4L8.68916 22.4024Z" fill="currentColor"/>
<path d="M23.3249 22.4024C23.3254 22.5223 23.3022 22.6411 23.2568 22.752C23.2113 22.8629 23.1444 22.9637 23.0599 23.0487C22.9755 23.1337 22.875 23.2013 22.7644 23.2475C22.6538 23.2937 22.5352 23.3176 22.4154 23.3179H19.0476V25.0071H22.3965C23.0851 25.0049 23.7448 24.7304 24.2317 24.2435C24.7186 23.7566 24.993 23.0969 24.9952 22.4083V19.0157H23.3072L23.3249 22.4024Z" fill="currentColor"/>
<path d="M22.4095 6.99292H19.0464V8.68213H22.3953C22.5153 8.68182 22.6342 8.70516 22.7452 8.75084C22.8561 8.79651 22.957 8.86362 23.0421 8.94832C23.1271 9.03301 23.1946 9.13364 23.2407 9.24444C23.2868 9.35524 23.3106 9.47404 23.3108 9.59405V12.9878H25V9.59643C25.0034 8.91145 24.7349 8.25308 24.2535 7.76585C23.772 7.27862 23.1169 7.00233 22.4319 6.99764L22.4095 6.99292Z" fill="currentColor"/>
<path d="M8.68916 9.59643C8.689 9.47642 8.71248 9.35754 8.7583 9.24662C8.80412 9.1357 8.87141 9.03491 8.95621 8.94999C9.04102 8.86508 9.14167 8.7977 9.25254 8.75174C9.3634 8.70578 9.48227 8.68213 9.60228 8.68213H13.0125V6.99292H9.60344C8.91487 6.9951 8.25514 7.2696 7.76825 7.7565C7.28136 8.24339 7.00683 8.90312 7.00465 9.59169V12.9831H8.69392L8.68916 9.59643Z" fill="currentColor"/>
<path d="M10.0393 15.1696V16.8588H11.8112C12.0131 17.8545 12.5534 18.7496 13.3404 19.392C14.1275 20.0345 15.1127 20.3846 16.1286 20.3829C17.1446 20.3813 18.1286 20.0279 18.9136 19.3829C19.6985 18.7378 20.2359 17.8409 20.4344 16.8446H22.1933V15.1554L10.0393 15.1696Z" fill="currentColor" stroke="currentColor" stroke-width="0.1" stroke-linecap="round" stroke-linejoin="round"/>
<path d="M19.1445 13.7048C19.1765 13.7461 19.217 13.7801 19.2633 13.8043C19.3095 13.8286 19.3605 13.8426 19.4127 13.8454C19.4751 13.8429 19.5357 13.8235 19.5881 13.7893C19.6404 13.7551 19.6825 13.7073 19.7099 13.6511C19.7373 13.5949 19.7489 13.5323 19.7436 13.47C19.7383 13.4077 19.7162 13.348 19.6796 13.2973C19.3906 12.9003 19.0387 12.5532 18.6377 12.2696C18.6008 12.2421 18.5587 12.2224 18.514 12.2115C18.4693 12.2005 18.423 12.1987 18.3775 12.2061C18.3321 12.2135 18.2886 12.2299 18.2496 12.2544C18.2107 12.2789 18.1771 12.3109 18.1507 12.3486C18.1244 12.3864 18.1059 12.429 18.0964 12.474C18.0868 12.519 18.0863 12.5655 18.0951 12.6106C18.1038 12.6558 18.1215 12.6988 18.1472 12.737C18.1728 12.7752 18.2059 12.8079 18.2444 12.8331C18.5907 13.0717 18.8949 13.3663 19.1445 13.7048Z" fill="#969595"/>
<path d="M15.922 12.1716C16.3354 12.1477 16.7498 12.1952 17.147 12.3121C17.1784 12.3249 17.2125 12.3298 17.2462 12.3263C17.318 12.3254 17.3877 12.3021 17.4457 12.2598C17.5037 12.2175 17.5471 12.1582 17.5699 12.0901C17.5821 12.0469 17.5857 12.0017 17.5805 11.9571C17.5752 11.9125 17.5612 11.8694 17.5392 11.8302C17.5173 11.791 17.4879 11.7566 17.4526 11.7288C17.4173 11.701 17.3768 11.6805 17.3336 11.6684C16.8618 11.5398 16.3725 11.4875 15.8842 11.5136C15.7956 11.5213 15.7132 11.562 15.6533 11.6277C15.5933 11.6933 15.5602 11.7791 15.5606 11.868C15.5672 11.9557 15.6081 12.0374 15.6744 12.0953C15.7407 12.1532 15.8271 12.1827 15.9149 12.1775L15.922 12.1716Z" fill="#969595"/>
<path d="M13.4308 13.1708C13.513 13.1709 13.5926 13.1416 13.6552 13.0881C13.9645 12.8093 14.3224 12.5898 14.7112 12.4408C14.7933 12.4071 14.8586 12.3422 14.8928 12.2603C14.9271 12.1785 14.9274 12.0864 14.8937 12.0043C14.86 11.9222 14.7952 11.8569 14.7133 11.8227C14.6315 11.7884 14.5393 11.7881 14.4572 11.8218C14.0049 12.0087 13.5873 12.2702 13.2217 12.5955C13.1552 12.6542 13.1145 12.7367 13.1085 12.8252C13.1026 12.9137 13.1317 13.0009 13.1897 13.068C13.2199 13.1018 13.2572 13.1285 13.2988 13.1463C13.3405 13.164 13.3855 13.1724 13.4308 13.1708Z" fill="#969595"/>
<path d="M20.4687 15.1342H19.7599L19.6902 14.8046C19.6764 14.7622 19.6714 14.7174 19.6752 14.673C19.6791 14.6285 19.6918 14.5853 19.7126 14.5459C19.7559 14.4664 19.8291 14.4074 19.9159 14.3817C19.9496 14.3715 19.9846 14.3663 20.0198 14.3664C20.0912 14.366 20.1608 14.3888 20.2181 14.4315C20.2754 14.4741 20.3174 14.5341 20.3376 14.6026C20.3931 14.7722 20.4345 14.946 20.4616 15.1224L20.4687 15.1342ZM11.7711 15.146L11.7841 15.0846C11.8784 14.6006 12.0495 14.1348 12.2908 13.7048C12.3195 13.6526 12.3614 13.6089 12.4125 13.5782C12.4635 13.5475 12.5218 13.5309 12.5814 13.53C12.6425 13.5309 12.7023 13.5476 12.7551 13.5785C12.7934 13.5986 12.8274 13.6261 12.8551 13.6594C12.8828 13.6927 12.9036 13.7311 12.9164 13.7725C12.9293 13.8139 12.9338 13.8573 12.9298 13.9005C12.9259 13.9436 12.9135 13.9855 12.8933 14.0238L12.8815 14.0439C12.6911 14.392 12.5541 14.7667 12.4751 15.1555L11.7711 15.146Z" fill="#969595"/>
</g>
</svg>
