<svg width="32" height="32" viewBox="0 0 32 32" fill="none" xmlns="http://www.w3.org/2000/svg">
<g clip-path="url(#clip0_84_3289)">
<path d="M7.5 6H6V7.5H7.5V6Z" fill="currentColor"/>
<path d="M6 27V25.5H7.3125V25.6875H7.5V27H6Z" fill="currentColor"/>
<path d="M27 27H25.5V25.5H27V27Z" fill="currentColor"/>
<path d="M9.9375 7.5V6H12.5625V7.5H9.9375Z" fill="currentColor"/>
<path d="M25.5 20.4375H27V23.0625H25.5V20.4375Z" fill="currentColor"/>
<path d="M23.0625 25.5V27H20.4375V25.5H23.0625Z" fill="currentColor"/>
<path d="M17.8125 25.5V27H15.1875V25.5H17.8125Z" fill="currentColor"/>
<path d="M12.5625 25.5V27H9.9375V25.5H12.5625Z" fill="currentColor"/>
<path d="M7.5 23.0625H6V20.4375H7.5V23.0625Z" fill="currentColor"/>
<path d="M7.5 17.8125H6V15.1875H7.5V17.8125Z" fill="currentColor"/>
<path d="M7.5 12.5625H6V9.9375H7.5V12.5625Z" fill="currentColor"/>
<path d="M15 6V7.5H19.5C22.8137 7.5 25.5 10.1863 25.5 13.5V18H27V13.5C27 9.35786 23.6421 6 19.5 6H15Z" fill="currentColor"/>
</g>
</svg>
