<svg width="25" height="25" viewBox="0 0 25 25" fill="none" xmlns="http://www.w3.org/2000/svg">
<circle cx="12.5" cy="12.5" r="12.5" fill="#F5F5F5"/>
<mask id="mask0_143_3001" style="mask-type:luminance" maskUnits="userSpaceOnUse" x="0" y="1" width="25" height="24">
<path d="M25 1H0V25H25V1Z" fill="white"/>
</mask>
<g mask="url(#mask0_143_3001)">
<path d="M20.5001 12.25C20.8978 12.25 21.2793 12.3684 21.5605 12.5793C21.8418 12.7903 22 13.0763 22 13.3746C22 13.6729 21.8418 13.9589 21.5605 14.1698C21.2793 14.3807 20.8978 14.4994 20.5001 14.4994H4.49963C4.10185 14.4994 3.72043 14.3807 3.43916 14.1698C3.15788 13.9589 3 13.6729 3 13.3746C3 13.0763 3.15788 12.7903 3.43916 12.5793C3.72043 12.3684 4.10185 12.25 4.49963 12.25H20.5001Z" fill="currentColor"/>
</g>
</svg>
