<svg width="32" height="32" viewBox="0 0 32 32" fill="none" xmlns="http://www.w3.org/2000/svg">
<path fill-rule="evenodd" clip-rule="evenodd" d="M13.5848 10.8185C14.0368 10.2967 13.9803 9.50731 13.4585 9.05526C12.9367 8.60322 12.1473 8.65975 11.6952 9.18152L6.06023 15.6858C5.86709 15.9058 5.75 16.1942 5.75 16.51C5.75 16.5112 5.75 16.5123 5.75 16.5134C5.75085 16.827 5.86717 17.1135 6.05868 17.3325L11.6952 23.8385C12.1473 24.3603 12.9367 24.4168 13.4585 23.9648C13.9803 23.5127 14.0368 22.7233 13.5848 22.2015L9.73681 17.76H25.25C25.9404 17.76 26.5 17.2004 26.5 16.51C26.5 15.8197 25.9404 15.26 25.25 15.26H9.73683L13.5848 10.8185Z" fill="currentColor"/>
</svg>
