<svg width="32" height="32" viewBox="0 0 32 32" fill="none" xmlns="http://www.w3.org/2000/svg">
<g clip-path="url(#clip1_367_3346)">
<path d="M22.24 27.88C21.96 27.88 21.68 27.81 21.42 27.68L15.94 24.8L10.46 27.68C9.87 27.99 9.16 27.94 8.62 27.55C8.08 27.16 7.81 26.5 7.92 25.84L8.97 19.74L4.53 15.4C4.05 14.93 3.88 14.24 4.09 13.61C4.3 12.97 4.84 12.51 5.5 12.42L11.63 11.53L14.37 5.98C14.67 5.38 15.27 5 15.94 5C16.61 5 17.21 5.37 17.51 5.98L20.25 11.53L26.38 12.42C27.05 12.52 27.59 12.97 27.79 13.61C28 14.25 27.83 14.94 27.35 15.4L22.91 19.72L23.96 25.82C24.07 26.48 23.81 27.14 23.26 27.53C22.95 27.75 22.59 27.87 22.23 27.87L22.24 27.88ZM15.94 23.1L22.12 26.35C22.24 26.41 22.34 26.37 22.38 26.33C22.43 26.3 22.5 26.22 22.48 26.09L21.3 19.21L26.3 14.34C26.4 14.25 26.38 14.14 26.36 14.08C26.34 14.02 26.29 13.93 26.16 13.91L19.25 12.91L16.16 6.65C16.04 6.41 15.83 6.41 15.71 6.65L12.62 12.91L5.71 13.91C5.58 13.93 5.53 14.02 5.51 14.08C5.49 14.14 5.48 14.24 5.57 14.34L10.57 19.21L9.39 26.09C9.37 26.22 9.44 26.3 9.49 26.33C9.54 26.37 9.64 26.41 9.75 26.35L15.93 23.1H15.94Z" fill="currentColor"/>
<path d="M16.39 10.37L18.29 14.23L22.54 14.85C22.95 14.91 23.11 15.41 22.82 15.7L19.74 18.7L20.47 22.94C20.54 23.35 20.11 23.66 19.74 23.47L15.93 21.47L12.12 23.47C11.75 23.66 11.32 23.35 11.39 22.94L12.12 18.7L9.04 15.7C8.74 15.41 8.91 14.91 9.32 14.85L13.57 14.23L15.47 10.37C15.65 10 16.18 10 16.37 10.37H16.39Z" fill="currentColor"/>
</g>
</svg>
