<svg width="32" height="32" viewBox="0 0 32 32" fill="none" xmlns="http://www.w3.org/2000/svg">
<g mask="url(#mask0_143_2920)">
<path d="M25.0555 13.5254H22.3081C21.5368 12.4365 20.8567 11.9017 20.2306 11.8889C19.395 11.8722 17.1927 11.8799 15.6873 11.8889H14.4288C13.8528 11.8889 13.2396 12.4237 12.5582 13.5254H9.56147C9.17935 13.5261 8.81299 13.6781 8.54266 13.9482C8.27234 14.2183 8.12004 14.5845 8.11902 14.9666V23.9658C8.1197 24.3481 8.27191 24.7146 8.54227 24.985C8.81263 25.2553 9.17912 25.4075 9.56147 25.4082H25.0567C25.4389 25.4072 25.8051 25.2548 26.0751 24.9845C26.3452 24.7142 26.4972 24.3479 26.4979 23.9658V14.9666C26.4969 14.5845 26.3445 14.2183 26.0742 13.9482C25.8039 13.6781 25.4376 13.5261 25.0555 13.5254ZM21.0187 19.1165C21.0187 19.8503 20.8011 20.5676 20.3934 21.1778C19.9857 21.7879 19.4063 22.2635 18.7283 22.5443C18.0504 22.8251 17.3043 22.8986 16.5846 22.7554C15.8649 22.6123 15.2038 22.2589 14.6849 21.74C14.1661 21.2211 13.8127 20.56 13.6695 19.8403C13.5263 19.1206 13.5998 18.3746 13.8807 17.6967C14.1615 17.0187 14.637 16.4392 15.2472 16.0316C15.8573 15.6239 16.5747 15.4063 17.3085 15.4063C18.2921 15.4076 19.235 15.799 19.9305 16.4945C20.626 17.19 21.0173 18.1329 21.0187 19.1165ZM23.847 16.8191C23.6835 16.8191 23.5237 16.7707 23.3877 16.6798C23.2518 16.589 23.1459 16.4599 23.0833 16.3088C23.0207 16.1578 23.0043 15.9916 23.0362 15.8312C23.0681 15.6709 23.1468 15.5236 23.2624 15.408C23.378 15.2924 23.5253 15.2136 23.6857 15.1817C23.846 15.1499 24.0123 15.1662 24.1633 15.2288C24.3144 15.2914 24.4435 15.3973 24.5343 15.5332C24.6251 15.6692 24.6737 15.829 24.6737 15.9925C24.6737 16.2111 24.587 16.4208 24.4328 16.5757C24.2787 16.7306 24.0694 16.8181 23.8509 16.8191H23.847Z" fill="currentColor"/>
<path d="M17.3085 21.8047C18.7931 21.8047 19.9967 20.6012 19.9967 19.1165C19.9967 17.6319 18.7931 16.4283 17.3085 16.4283C15.8238 16.4283 14.6203 17.6319 14.6203 19.1165C14.6203 20.6012 15.8238 21.8047 17.3085 21.8047Z" fill="currentColor"/>
<path d="M11.7804 13.285H9.82889C9.73342 13.285 9.64185 13.2471 9.57434 13.1796C9.50683 13.112 9.46896 13.0205 9.46896 12.925C9.46896 12.8296 9.50683 12.738 9.57434 12.6705C9.64185 12.603 9.73342 12.5651 9.82889 12.5651H11.7804C11.8759 12.5651 11.9675 12.603 12.035 12.6705C12.1025 12.738 12.1404 12.8296 12.1404 12.925C12.1404 13.0205 12.1025 13.112 12.035 13.1796C11.9675 13.2471 11.8759 13.285 11.7804 13.285Z" fill="currentColor"/>
<path d="M9.36609 9.37685H7.68706V7.69914C7.69102 7.60879 7.67669 7.5186 7.64485 7.43396C7.61301 7.34932 7.56433 7.27201 7.5018 7.20668C7.43928 7.14135 7.36416 7.08937 7.281 7.05385C7.19784 7.01833 7.10833 7 7.0179 7C6.92747 7 6.83804 7.01833 6.75488 7.05385C6.67172 7.08937 6.5966 7.14135 6.53408 7.20668C6.47155 7.27201 6.42287 7.34932 6.39103 7.43396C6.35919 7.5186 6.34478 7.60879 6.34874 7.69914V9.37685H4.66979C4.49215 9.37685 4.32178 9.4474 4.19617 9.57302C4.07056 9.69863 4 9.869 4 10.0466C4 10.2243 4.07056 10.3947 4.19617 10.5203C4.32178 10.6459 4.49215 10.7164 4.66979 10.7164H6.34874V12.3954C6.3563 12.5678 6.43013 12.7306 6.55479 12.85C6.67945 12.9693 6.84534 13.0359 7.0179 13.0359C7.19046 13.0359 7.35643 12.9693 7.48109 12.85C7.60575 12.7306 7.67951 12.5678 7.68706 12.3954V10.7164H9.36609C9.54373 10.7164 9.7141 10.6459 9.83971 10.5203C9.96533 10.3947 10.0359 10.2243 10.0359 10.0466C10.0359 9.869 9.96533 9.69863 9.83971 9.57302C9.7141 9.4474 9.54373 9.37685 9.36609 9.37685Z" fill="currentColor"/>
</g>
</svg>
