<svg width="32" height="32" viewBox="0 0 32 32" fill="none" xmlns="http://www.w3.org/2000/svg">
<path d="M10.9995 7C10.2084 7 9.43525 7.23456 8.77753 7.67403C8.11982 8.1135 7.60716 8.73814 7.30444 9.46895C7.00173 10.1998 6.92253 11.0039 7.07685 11.7797C7.23117 12.5556 7.61211 13.2682 8.17144 13.8275C8.73078 14.3869 9.4434 14.7678 10.2192 14.9221C10.995 15.0764 11.7992 14.9972 12.53 14.6945C13.2608 14.3918 13.8855 13.8792 14.3249 13.2215C14.7644 12.5638 14.999 11.7905 14.999 10.9995C14.999 9.93876 14.5776 8.92147 13.8276 8.17143C13.0775 7.42138 12.0602 7 10.9995 7ZM18.9996 7C18.4693 7 17.9606 7.21069 17.5856 7.58571C17.2106 7.96074 16.9999 8.46938 16.9999 8.99974V12.9992C16.9999 13.5296 17.2106 14.0382 17.5856 14.4133C17.9606 14.7883 18.4693 14.999 18.9996 14.999H22.9991C23.5295 14.999 24.0381 14.7883 24.4131 14.4133C24.7882 14.0382 24.9989 13.5296 24.9989 12.9992V8.99974C24.9989 8.46938 24.7882 7.96074 24.4131 7.58571C24.0381 7.21069 23.5295 7 22.9991 7H18.9996ZM20.8171 17.001C20.6058 16.9947 20.3984 17.0584 20.2271 17.1822L17.0707 19.4769C16.9073 19.5957 16.7856 19.7631 16.7231 19.9552C16.6605 20.1473 16.6602 20.3542 16.7224 20.5464L17.9289 24.2626C17.9915 24.455 18.1134 24.6228 18.2772 24.7417C18.4409 24.8606 18.6381 24.9246 18.8405 24.9245H22.7402C22.9426 24.9246 23.1397 24.8606 23.3035 24.7417C23.4673 24.6228 23.5892 24.455 23.6517 24.2626L24.8595 20.5464C24.9216 20.3542 24.9214 20.1473 24.8588 19.9552C24.7963 19.7631 24.6745 19.5957 24.5111 19.4769L21.3559 17.1834C21.199 17.0701 21.0116 17.007 20.8182 17.0022L20.8171 17.001ZM11.0088 17.001C10.8221 17 10.6389 17.0512 10.4798 17.1489C10.3208 17.2466 10.1923 17.3868 10.1088 17.5538L7.10917 23.553C7.03306 23.7053 6.99707 23.8745 7.00462 24.0445C7.01218 24.2146 7.06302 24.3799 7.15234 24.5248C7.24165 24.6697 7.36651 24.7894 7.51503 24.8725C7.66355 24.9557 7.83083 24.9996 8.00105 25H14.0014C14.1719 25.0002 14.3397 24.9567 14.4887 24.8738C14.6376 24.7909 14.763 24.6712 14.8527 24.5262C14.9424 24.3812 14.9936 24.2157 15.0013 24.0454C15.009 23.875 14.973 23.7055 14.8968 23.553L11.8972 17.5538C11.8146 17.3882 11.6878 17.2488 11.5308 17.151C11.3737 17.0532 11.1926 17.0009 11.0076 16.9999L11.0088 17.001Z" fill="currentColor"/>
</svg>
