<svg width="32" height="32" viewBox="0 0 32 32" fill="none" xmlns="http://www.w3.org/2000/svg">
<g clip-path="url(#clip0_383_3626)">
<path d="M13.7797 8H9.8293C9.5359 8 9.29805 8.23785 9.29805 8.53125V21.6373C9.29805 21.9307 9.5359 22.1685 9.8293 22.1685H13.7797C14.0731 22.1685 14.311 21.9307 14.311 21.6373V8.53125C14.311 8.23785 14.0731 8 13.7797 8Z" fill="currentColor"/>
<path d="M21.2969 12.1439H17.3465C17.0531 12.1439 16.8153 12.3817 16.8153 12.6751V21.6374C16.8153 21.9308 17.0531 22.1686 17.3465 22.1686H21.2969C21.5903 22.1686 21.8282 21.9308 21.8282 21.6374V12.6751C21.8282 12.3817 21.5903 12.1439 21.2969 12.1439Z" fill="currentColor"/>
<path d="M5.99998 23.9069C5.99998 23.6761 6.09178 23.4547 6.25498 23.2916C6.41817 23.1284 6.63949 23.0366 6.87028 23.0366H24.2572C24.3713 23.0367 24.4841 23.0594 24.5895 23.1032C24.6949 23.147 24.7908 23.2113 24.8714 23.2921C24.952 23.3729 25.016 23.4688 25.0595 23.5743C25.1031 23.6798 25.1253 23.7927 25.1251 23.9069C25.1253 24.021 25.1031 24.1342 25.0595 24.2397C25.016 24.3452 24.952 24.4408 24.8714 24.5216C24.7908 24.6024 24.6949 24.6667 24.5895 24.7105C24.4841 24.7543 24.3713 24.777 24.2572 24.7771H6.87028C6.63949 24.7771 6.41817 24.6853 6.25498 24.5222C6.09178 24.359 5.99998 24.1376 5.99998 23.9069Z" fill="currentColor"/>
</g>
</svg>
