<svg width="32" height="32" viewBox="0 0 32 32" fill="none" xmlns="http://www.w3.org/2000/svg">
<path d="M16.0001 6.66663C11.9201 6.66663 8.17394 8.1189 5.25639 10.5289C4.61189 11.0635 4.58024 12.0383 5.17295 12.6272L5.99009 13.4391C6.51376 13.9594 7.34816 13.9937 7.92074 13.5306C10.1276 11.7439 12.9387 10.6689 16.0001 10.6689C19.0615 10.6689 21.8726 11.741 24.0794 13.5306C24.6549 13.9966 25.4864 13.9623 26.0101 13.4391L26.8272 12.6272C27.4199 12.0383 27.3883 11.0606 26.7438 10.5289C23.8262 8.1189 20.08 6.66663 16.0001 6.66663Z" fill="currentColor"/>
<path d="M16 13.4534C13.8391 13.4534 11.8366 14.1395 10.1994 15.3002C9.48297 15.809 9.41679 16.8439 10.0383 17.4614L10.8669 18.2847C11.3532 18.7679 12.1157 18.8365 12.6882 18.4563C13.6377 17.8245 14.7771 17.4585 16 17.4585C17.2228 17.4585 18.3651 17.8273 19.3117 18.4563C19.8843 18.8365 20.6467 18.7679 21.133 18.2847L21.9617 17.4614C22.5831 16.8439 22.517 15.809 21.8005 15.3002C20.1634 14.1395 18.1608 13.4534 16 13.4534Z" fill="currentColor"/>
<path d="M16 26.6668C17.8243 26.6668 19.3031 25.1975 19.3031 23.3849C19.3031 21.5724 17.8243 20.103 16 20.103C14.1758 20.103 12.6969 21.5724 12.6969 23.3849C12.6969 25.1975 14.1758 26.6668 16 26.6668Z" fill="currentColor"/>
</svg>
