<svg width="32" height="32" viewBox="0 0 32 32" fill="none" xmlns="http://www.w3.org/2000/svg">
<g mask="url(#mask0_383_3596)">
<path d="M13.9672 9.97003H10.0168C9.72341 9.97003 9.48556 10.2079 9.48556 10.5013V23.6073C9.48556 23.9007 9.72341 24.1386 10.0168 24.1386H13.9672C14.2606 24.1386 14.4985 23.9007 14.4985 23.6073V10.5013C14.4985 10.2079 14.2606 9.97003 13.9672 9.97003Z" fill="currentColor"/>
<path d="M21.4845 9.97003H17.534C17.2406 9.97003 17.0028 10.2079 17.0028 10.5013V19.4635C17.0028 19.7569 17.2406 19.9948 17.534 19.9948H21.4845C21.7779 19.9948 22.0157 19.7569 22.0157 19.4635V10.5013C22.0157 10.2079 21.7779 9.97003 21.4845 9.97003Z" fill="currentColor"/>
<path d="M6.18752 8.2318C6.1878 8.46222 6.27958 8.68313 6.44251 8.84607C6.60545 9.009 6.82636 9.10078 7.05678 9.10106H24.4437C24.6742 9.10106 24.8952 9.00932 25.0582 8.84633C25.2212 8.68333 25.3127 8.46231 25.3127 8.2318C25.3127 8.0012 25.2212 7.77992 25.0582 7.61676C24.8952 7.4536 24.6743 7.36179 24.4437 7.36151H7.05678C6.82617 7.36179 6.60496 7.4536 6.442 7.61676C6.27903 7.77992 6.18752 8.0012 6.18752 8.2318Z" fill="currentColor"/>
</g>
</svg>
