<svg width="32" height="32" viewBox="0 0 32 32" fill="none" xmlns="http://www.w3.org/2000/svg">
<g mask="url(#mask0_383_3504)">
<path d="M20.3868 14.5804H17.191V9.65873H20.3868C20.6112 9.64203 20.833 9.715 21.0037 9.86158C21.1744 10.0082 21.2802 10.2165 21.2976 10.4408V13.7993C21.2802 14.0236 21.1744 14.232 21.0037 14.3785C20.833 14.5251 20.6112 14.5971 20.3868 14.5804Z" fill="currentColor"/>
<path d="M14.2455 14.5803H11.0985C10.8766 14.5929 10.6586 14.5179 10.4912 14.3717C10.3238 14.2256 10.2202 14.0198 10.2027 13.7982V10.4395C10.2202 10.2179 10.3238 10.0121 10.4912 9.86593C10.6586 9.71976 10.8766 9.645 11.0985 9.65763H14.2455V14.5803Z" fill="currentColor"/>
<path d="M15.7479 6.18851C15.9669 6.20059 16.1723 6.29907 16.3189 6.46218C16.4655 6.62528 16.5413 6.83981 16.53 7.0588V24.4457C16.541 24.6644 16.4649 24.8786 16.3184 25.0413C16.1718 25.204 15.9666 25.3018 15.7479 25.3137C15.5291 25.3021 15.3238 25.2043 15.177 25.0415C15.0302 24.8788 14.9538 24.6646 14.9648 24.4457L14.9648 7.0588C14.9538 6.8397 15.03 6.62499 15.1767 6.46192C15.3235 6.29885 15.5289 6.20059 15.7479 6.18851Z" fill="currentColor"/>
<path d="M23.3237 21.8425H17.1899V16.9198H23.3237C23.5496 16.9027 23.7729 16.9753 23.9455 17.1219C24.1182 17.2685 24.2261 17.4773 24.2459 17.7029V21.0593C24.2261 21.2849 24.1182 21.4938 23.9455 21.6404C23.7729 21.787 23.5496 21.8595 23.3237 21.8425Z" fill="currentColor"/>
<path d="M14.2467 21.8426H8.16817C7.94367 21.8582 7.72186 21.7847 7.55106 21.6382C7.38026 21.4917 7.27407 21.2837 7.25534 21.0595V17.7031C7.27407 17.4788 7.38026 17.2709 7.55106 17.1244C7.72186 16.9778 7.94367 16.9044 8.16817 16.9199H14.2457L14.2467 21.8426Z" fill="currentColor"/>
</g>
</svg>
