<svg width="32" height="32" viewBox="0 0 32 32" fill="none" xmlns="http://www.w3.org/2000/svg">
<path fill-rule="evenodd" clip-rule="evenodd" d="M12.08 7.75C12.08 7.33579 12.4158 7 12.83 7H24.75C25.1642 7 25.5 7.33579 25.5 7.75V19.68C25.5 20.0942 25.1642 20.43 24.75 20.43H19.42V25.64C19.42 26.0542 19.0842 26.39 18.67 26.39H6.75C6.33579 26.39 6 26.0542 6 25.64V13.72C6 13.3058 6.33579 12.97 6.75 12.97H12.08V7.75ZM12.8233 14.47H7.5V24.89H17.92V19.68C17.92 19.6794 17.92 19.6788 17.92 19.6783V14.47H12.83C12.8278 14.47 12.8255 14.47 12.8233 14.47Z" fill="currentColor"/>
</svg>
