<svg width="30" height="30" viewBox="0 0 30 30" fill="none" xmlns="http://www.w3.org/2000/svg">
<path d="M13.155 4.99997C12.9778 5.00556 12.8061 5.06286 12.6611 5.16481C12.5161 5.26675 12.404 5.40889 12.3387 5.57372L5.065 23.75C5.00909 23.8879 4.98794 24.0375 5.0034 24.1856C5.01887 24.3337 5.07047 24.4757 5.15367 24.5991C5.23688 24.7226 5.34914 24.8237 5.48058 24.8936C5.61202 24.9635 5.75862 25 5.9075 25H13.1812C13.3006 25 13.4188 24.9765 13.529 24.9308C13.6393 24.8851 13.7394 24.8182 13.8238 24.7338C13.9082 24.6494 13.9752 24.5492 14.0208 24.439C14.0665 24.3287 14.09 24.2106 14.09 24.0912V5.90872C14.0908 5.78607 14.0668 5.66452 14.0196 5.55134C13.9723 5.43815 13.9028 5.33566 13.815 5.24997C13.7269 5.16691 13.6232 5.10207 13.5099 5.05917C13.3967 5.01626 13.276 4.99615 13.155 4.99997ZM16.8087 4.99997C16.5693 5.00228 16.3403 5.09904 16.1718 5.26921C16.0033 5.43939 15.9087 5.66921 15.9087 5.90872V24.09C15.9086 24.2095 15.932 24.3279 15.9777 24.4384C16.0234 24.5489 16.0904 24.6493 16.1749 24.7338C16.2594 24.8183 16.3598 24.8854 16.4703 24.931C16.5808 24.9767 16.6992 25.0001 16.8187 25H24.0925C24.2414 25 24.388 24.9635 24.5194 24.8936C24.6509 24.8237 24.7631 24.7226 24.8463 24.5991C24.9295 24.4757 24.9811 24.3337 24.9966 24.1856C25.012 24.0375 24.9909 23.8879 24.935 23.75L17.6612 5.57372C17.5932 5.40353 17.4755 5.25777 17.3234 5.15544C17.1714 5.0531 16.992 4.99893 16.8087 4.99997ZM12.2725 10.625V23.1812H7.25L12.2725 10.625Z" fill="currentColor"/>
</svg>
