<svg width="32" height="32" viewBox="0 0 32 32" fill="none" xmlns="http://www.w3.org/2000/svg">
<path fill-rule="evenodd" clip-rule="evenodd" d="M12.83 7C12.4158 7 12.08 7.33579 12.08 7.75V12.97H6.75C6.33579 12.97 6 13.3058 6 13.72V25.64C6 26.0542 6.33579 26.39 6.75 26.39H18.67C19.0842 26.39 19.42 26.0542 19.42 25.64V20.43H24.75C25.1642 20.43 25.5 20.0942 25.5 19.68V7.75C25.5 7.33579 25.1642 7 24.75 7H12.83ZM13.58 12.97V8.5H24V18.93H19.54V13.72C19.54 13.3058 19.2042 12.97 18.79 12.97H13.58ZM17.92 20.43H12.83C12.4158 20.43 12.08 20.0942 12.08 19.68V14.47H7.5V24.89H17.92V20.43Z" fill="currentColor"/>
</svg>
