<svg width="25" height="25" viewBox="0 0 25 25" fill="none" xmlns="http://www.w3.org/2000/svg">
<circle cx="12.5" cy="12.5" r="12.5" fill="#F5F5F5"/>
<mask id="mask0_143_2998" style="mask-type:luminance" maskUnits="userSpaceOnUse" x="1" y="1" width="24" height="23">
<path d="M25.0001 1.47058H1.4707V23.5294H25.0001V1.47058Z" fill="white"/>
</mask>
<g mask="url(#mask0_143_2998)">
<path d="M18.7505 11.1217H13.9712V6.64082C13.9712 6.36654 13.855 6.10342 13.6481 5.90947C13.4412 5.71552 13.1607 5.60657 12.8681 5.60657C12.5755 5.60657 12.2948 5.71552 12.0879 5.90947C11.881 6.10342 11.7648 6.36654 11.7648 6.64082V11.1217H6.98548C6.69299 11.1217 6.41254 11.2305 6.20572 11.4244C5.9989 11.6182 5.88281 11.8811 5.88281 12.1553C5.88281 12.4295 5.9989 12.6923 6.20572 12.8862C6.41254 13.0801 6.69299 13.1891 6.98548 13.1891H11.7648V17.67C11.7648 17.9442 11.881 18.2071 12.0879 18.4011C12.2948 18.595 12.5755 18.704 12.8681 18.704C13.1607 18.704 13.4412 18.595 13.6481 18.4011C13.855 18.2071 13.9712 17.9442 13.9712 17.67V13.1891H18.7505C19.043 13.1891 19.3234 13.0801 19.5303 12.8862C19.7371 12.6923 19.8534 12.4295 19.8534 12.1553C19.8534 11.8811 19.7371 11.6182 19.5303 11.4244C19.3234 11.2305 19.043 11.1217 18.7505 11.1217Z" fill="currentColor"/>
</g>
</svg>
