<svg width="32" height="32" viewBox="0 0 32 32" fill="none" xmlns="http://www.w3.org/2000/svg">
<g clip-path="url(#clip0_380_3458)">
<path d="M5.99073 8.79818C5.98476 8.55086 6.07717 8.3113 6.24767 8.13205C6.41817 7.95279 6.65283 7.84851 6.90014 7.8421L25.0903 7.8421C25.3376 7.84851 25.5723 7.95279 25.7428 8.13205C25.9133 8.3113 26.0057 8.55086 25.9997 8.79818C26.0028 8.92068 25.9817 9.04257 25.9377 9.15692C25.8937 9.27128 25.8276 9.37586 25.7431 9.46465C25.6587 9.55343 25.5575 9.62469 25.4455 9.67438C25.3335 9.72408 25.2128 9.75122 25.0903 9.75425L6.89792 9.75425C6.6509 9.74756 6.41663 9.64315 6.24655 9.4639C6.07646 9.28464 5.98446 9.0452 5.99073 8.79818Z" fill="currentColor"/>
<path d="M5.99073 23.8988C5.98476 23.6515 6.07717 23.4119 6.24767 23.2327C6.41817 23.0534 6.65283 22.9492 6.90014 22.9427H25.0903C25.3376 22.9492 25.5723 23.0534 25.7428 23.2327C25.9133 23.4119 26.0057 23.6515 25.9997 23.8988C26.0028 24.0213 25.9817 24.1432 25.9377 24.2576C25.8937 24.3719 25.8276 24.4765 25.7431 24.5653C25.6587 24.6541 25.5575 24.7253 25.4455 24.775C25.3335 24.8247 25.2128 24.8519 25.0903 24.8549H6.89792C6.6509 24.8482 6.41663 24.7438 6.24655 24.5645C6.07646 24.3853 5.98446 24.1458 5.99073 23.8988Z" fill="currentColor"/>
<path d="M24.3877 18.5236V14.1723C24.3877 13.8653 24.1388 13.6164 23.8318 13.6164L8.15528 13.6164C7.84828 13.6164 7.59941 13.8653 7.59941 14.1723V18.5236C7.59941 18.8306 7.84828 19.0794 8.15528 19.0794H23.8318C24.1388 19.0794 24.3877 18.8306 24.3877 18.5236Z" fill="currentColor"/>
</g>
</svg>
