<svg width="32" height="32" viewBox="0 0 32 32" fill="none" xmlns="http://www.w3.org/2000/svg">
<path fill-rule="evenodd" clip-rule="evenodd" d="M11.3772 6.73705C11.3772 6.16903 10.9167 5.70856 10.3487 5.70856C9.78063 5.70856 9.32016 6.16903 9.32016 6.73705V8.96475H6.7335C6.16547 8.96475 5.705 9.42522 5.705 9.99325C5.705 10.5613 6.16547 11.0217 6.7335 11.0217H9.32016V22.4648C9.32016 23.0328 9.78063 23.4933 10.3487 23.4933H21.3309V25.721C21.3309 26.289 21.7914 26.7495 22.3594 26.7495C22.9275 26.7495 23.3879 26.289 23.3879 25.721V23.4933H25.9715C26.5395 23.4933 27 23.0328 27 22.4648C27 21.8968 26.5395 21.4363 25.9715 21.4363H23.3879V9.99325C23.3879 9.42522 22.9275 8.96475 22.3594 8.96475H11.3772V6.73705ZM11.3772 11.0217V21.4363H21.3309V11.0217H11.3772Z" fill="currentColor"/>
</svg>
