<svg width="32" height="32" viewBox="0 0 32 32" fill="none" xmlns="http://www.w3.org/2000/svg">
<g mask="url(#mask0_85_1174)">
<path d="M13.4493 17.7647H10.8312C10.5689 17.7641 10.3175 17.6599 10.1318 17.4747C9.9461 17.2894 9.84124 17.0384 9.83995 16.7761V10.836C9.8406 10.5733 9.94543 10.3217 10.1312 10.136C10.3169 9.95021 10.5685 9.84537 10.8312 9.84473H16.7725C17.0349 9.8457 17.2861 9.95051 17.4714 10.1363C17.6567 10.322 17.7608 10.5736 17.7611 10.836V13.4529H14.4406C14.1778 13.4529 13.9257 13.5571 13.7397 13.7426C13.5536 13.9282 13.4488 14.1799 13.4481 14.4427L13.4493 17.7647Z" fill="currentColor"/>
<path d="M15.1578 14.1691C14.8955 14.1694 14.6441 14.2738 14.4587 14.4594C14.2733 14.645 14.1692 14.8968 14.1692 15.1591V21.1017C14.1692 21.3639 14.2732 21.6154 14.4587 21.8008C14.6441 21.9862 14.8956 22.0902 15.1578 22.0902H21.0979C21.3604 22.0902 21.6122 21.9862 21.798 21.8008C21.9838 21.6154 22.0886 21.3641 22.0892 21.1017V15.1591C22.0886 14.8966 21.9838 14.645 21.798 14.4594C21.6122 14.2738 21.3605 14.1694 21.0979 14.1691H15.1578Z" fill="currentColor"/>
<path d="M22.6023 25.2399H9.40255C8.70247 25.2392 8.03125 24.961 7.5361 24.4661C7.04095 23.9712 6.76214 23.3 6.76117 22.6V9.3999C6.76214 8.69982 7.04095 8.02867 7.5361 7.53375C8.03125 7.03882 8.70247 6.76066 9.40255 6.76001H22.6023C23.3023 6.76066 23.9735 7.03909 24.4685 7.53404C24.9634 8.029 25.2419 8.69993 25.2425 9.3999V22.6C25.2419 23.2999 24.9634 23.9712 24.4685 24.4661C23.9735 24.9611 23.3023 25.2392 22.6023 25.2399ZM9.40255 8.16783C9.07558 8.16783 8.76178 8.29762 8.53035 8.52859C8.29891 8.75957 8.16874 9.07293 8.1681 9.3999V22.6C8.16874 22.9269 8.29891 23.2403 8.53035 23.4713C8.76178 23.7022 9.07558 23.832 9.40255 23.832H22.6023C22.929 23.8317 23.2424 23.7017 23.4733 23.4707C23.7043 23.2397 23.8341 22.9266 23.8344 22.6V9.3999C23.8341 9.07325 23.7043 8.76016 23.4733 8.52919C23.2424 8.29821 22.929 8.16816 22.6023 8.16783H9.40255Z" fill="currentColor"/>
<path d="M8.05556 5H5.61111C5.2736 5 5 5.2736 5 5.61111V8.05556C5 8.39306 5.2736 8.66667 5.61111 8.66667H8.05556C8.39306 8.66667 8.66667 8.39306 8.66667 8.05556V5.61111C8.66667 5.2736 8.39306 5 8.05556 5Z" fill="currentColor"/>
<path d="M26.3889 5H23.9444C23.6069 5 23.3333 5.2736 23.3333 5.61111V8.05556C23.3333 8.39306 23.6069 8.66667 23.9444 8.66667H26.3889C26.7264 8.66667 27 8.39306 27 8.05556V5.61111C27 5.2736 26.7264 5 26.3889 5Z" fill="currentColor"/>
<path d="M8.05556 23.3334H5.61111C5.2736 23.3334 5 23.607 5 23.9445V26.3889C5 26.7264 5.2736 27 5.61111 27H8.05556C8.39306 27 8.66667 26.7264 8.66667 26.3889V23.9445C8.66667 23.607 8.39306 23.3334 8.05556 23.3334Z" fill="currentColor"/>
<path d="M26.3889 23.3334H23.9444C23.6069 23.3334 23.3333 23.607 23.3333 23.9445V26.3889C23.3333 26.7264 23.6069 27 23.9444 27H26.3889C26.7264 27 27 26.7264 27 26.3889V23.9445C27 23.607 26.7264 23.3334 26.3889 23.3334Z" fill="currentColor"/>
</g>
</svg>
