<svg width="32" height="32" viewBox="0 0 32 32" fill="none" xmlns="http://www.w3.org/2000/svg">
<path d="M25.01 16.34V10.13C26.14 9.84 26.97 8.82 26.97 7.6C26.97 6.17 25.81 5 24.37 5C23.12 5 22.07 5.89 21.82 7.07H15.78C15.53 5.89 14.48 5 13.23 5C11.8 5 10.63 6.17 10.63 7.6C10.63 8.78 11.41 9.77 12.48 10.1V12.59H10.09C9.77 11.52 8.78 10.74 7.6 10.74C6.17 10.74 5 11.91 5 13.34C5 14.52 5.78 15.51 6.85 15.83V21.89C5.78 22.21 5 23.2 5 24.37C5 25.81 6.17 26.98 7.6 26.98C8.77 26.98 9.76 26.2 10.08 25.13H16.26C16.58 26.2 17.57 26.98 18.74 26.98C20.18 26.98 21.34 25.81 21.34 24.37C21.34 23.16 20.51 22.14 19.38 21.86V19.6H21.88C22.2 20.67 23.2 21.46 24.37 21.46C25.81 21.46 26.97 20.29 26.97 18.86C26.97 17.64 26.14 16.62 25.01 16.34ZM23.27 18.86C23.28 18.28 23.71 17.82 24.26 17.77C24.3 17.77 24.33 17.77 24.37 17.77C24.61 17.77 24.83 17.84 25.01 17.98C25.29 18.17 25.47 18.5 25.47 18.87C25.47 19.47 24.98 19.97 24.37 19.97C24.05 19.97 23.76 19.83 23.57 19.61C23.38 19.41 23.27 19.15 23.27 18.87V18.86ZM19.84 24.37C19.84 24.98 19.35 25.48 18.74 25.48C18.43 25.48 18.15 25.35 17.95 25.13C17.76 24.94 17.64 24.67 17.64 24.37C17.64 23.77 18.14 23.28 18.74 23.28C18.98 23.28 19.2 23.35 19.38 23.49C19.66 23.68 19.84 24 19.84 24.37ZM16.25 23.63H10.09C9.84 22.8 9.19 22.14 8.35 21.89V15.83C9.19 15.58 9.84 14.93 10.09 14.09H16.25C16.49 14.88 17.1 15.52 17.88 15.79V21.93C17.1 22.2 16.49 22.84 16.25 23.63ZM8.7 24.37C8.7 24.67 8.59 24.94 8.4 25.13C8.2 25.35 7.91 25.48 7.6 25.48C7 25.48 6.5 24.98 6.5 24.37C6.5 24.06 6.64 23.78 6.85 23.58C7.05 23.39 7.31 23.28 7.6 23.28C7.89 23.28 8.15 23.39 8.35 23.58V23.63H8.4C8.59 23.82 8.7 24.08 8.7 24.37ZM7.6 12.24C7.92 12.24 8.2 12.38 8.4 12.59C8.59 12.79 8.7 13.05 8.7 13.34C8.7 13.63 8.59 13.89 8.4 14.09H8.35V14.14C8.15 14.33 7.89 14.44 7.6 14.44C7.31 14.44 7.05 14.33 6.85 14.14C6.64 13.94 6.5 13.66 6.5 13.34C6.5 12.74 7 12.24 7.6 12.24ZM13.23 6.5C13.65 6.5 14 6.73 14.18 7.07C14.28 7.23 14.33 7.41 14.33 7.6C14.33 7.68 14.32 7.75 14.31 7.82C14.21 8.33 13.76 8.71 13.23 8.71C12.94 8.71 12.68 8.6 12.48 8.41C12.26 8.21 12.13 7.92 12.13 7.6C12.13 7 12.62 6.5 13.23 6.5ZM23.27 7.6C23.27 7.41 23.32 7.23 23.42 7.07C23.6 6.73 23.96 6.5 24.37 6.5C24.98 6.5 25.47 7 25.47 7.6C25.47 7.97 25.29 8.3 25.01 8.5C24.83 8.63 24.61 8.71 24.37 8.71C24.33 8.71 24.3 8.71 24.26 8.71C23.78 8.66 23.39 8.3 23.29 7.83C23.28 7.76 23.27 7.69 23.27 7.61V7.6ZM17.64 13.34C17.64 13.05 17.75 12.79 17.94 12.59C18.14 12.37 18.43 12.24 18.74 12.24C19.35 12.24 19.84 12.73 19.84 13.34C19.84 13.71 19.66 14.03 19.38 14.23C19.2 14.36 18.98 14.44 18.74 14.44C18.7 14.44 18.67 14.44 18.63 14.43C18.08 14.38 17.64 13.9 17.64 13.34Z" fill="currentColor"/>
</svg>
