<svg width="32" height="32" viewBox="0 0 32 32" fill="none" xmlns="http://www.w3.org/2000/svg">
<path d="M14.155 5.99997C13.9778 6.00556 13.8061 6.06286 13.6611 6.16481C13.5161 6.26675 13.404 6.40889 13.3387 6.57372L6.065 24.75C6.00909 24.8879 5.98794 25.0375 6.0034 25.1856C6.01887 25.3337 6.07047 25.4757 6.15367 25.5991C6.23688 25.7226 6.34914 25.8237 6.48058 25.8936C6.61202 25.9635 6.75862 26 6.9075 26H14.1812C14.3006 26 14.4188 25.9765 14.529 25.9308C14.6393 25.8851 14.7394 25.8182 14.8238 25.7338C14.9082 25.6494 14.9752 25.5492 15.0208 25.439C15.0665 25.3287 15.09 25.2106 15.09 25.0912V6.90872C15.0908 6.78607 15.0668 6.66452 15.0196 6.55134C14.9723 6.43815 14.9028 6.33566 14.815 6.24997C14.7269 6.16691 14.6232 6.10207 14.5099 6.05917C14.3967 6.01626 14.276 5.99615 14.155 5.99997ZM17.8087 5.99997C17.5693 6.00228 17.3403 6.09904 17.1718 6.26921C17.0033 6.43939 16.9087 6.66921 16.9087 6.90872V25.09C16.9086 25.2095 16.932 25.3279 16.9777 25.4384C17.0234 25.5489 17.0904 25.6493 17.1749 25.7338C17.2594 25.8183 17.3598 25.8854 17.4703 25.931C17.5808 25.9767 17.6992 26.0001 17.8187 26H25.0925C25.2414 26 25.388 25.9635 25.5194 25.8936C25.6509 25.8237 25.7631 25.7226 25.8463 25.5991C25.9295 25.4757 25.9811 25.3337 25.9966 25.1856C26.012 25.0375 25.9909 24.8879 25.935 24.75L18.6612 6.57372C18.5932 6.40353 18.4755 6.25777 18.3234 6.15544C18.1714 6.0531 17.992 5.99893 17.8087 5.99997ZM13.2725 11.625V24.1812H8.25L13.2725 11.625Z" fill="currentColor"/>
</svg>
