<svg width="32" height="32" viewBox="0 0 32 32" fill="none" xmlns="http://www.w3.org/2000/svg">
<g clip-path="url(#clip0_383_3611)">
<path d="M16.2658 21.0424V17.9516H21.8027V21.0424C21.8029 21.1579 21.7801 21.2723 21.7361 21.3791C21.692 21.4859 21.6273 21.5829 21.5457 21.6647C21.4641 21.7465 21.3673 21.8115 21.2606 21.8559C21.1539 21.9002 21.0394 21.9229 20.9239 21.923H17.1467C16.9133 21.9228 16.6896 21.8298 16.5247 21.6647C16.3597 21.4995 16.2671 21.2758 16.2671 21.0424H16.2658Z" fill="currentColor"/>
<path d="M16.2658 14.763V11.6709C16.2658 11.4376 16.3587 11.2138 16.5236 11.0488C16.6886 10.8839 16.9124 10.7913 17.1457 10.7913H20.9239C21.157 10.7915 21.3806 10.8844 21.5454 11.0494C21.7102 11.2143 21.8027 11.4377 21.8027 11.6709V14.763H16.2658Z" fill="currentColor"/>
<path d="M25.1241 16.3577C25.125 16.4725 25.1031 16.5866 25.0598 16.6931C25.0166 16.7995 24.9527 16.8962 24.872 16.9779C24.7913 17.0596 24.6952 17.1245 24.5893 17.1691C24.4834 17.2136 24.3698 17.237 24.2549 17.2375H6.86799C6.7532 17.2369 6.63965 17.2134 6.53388 17.1688C6.42811 17.1242 6.33227 17.0593 6.25165 16.9776C6.17103 16.8959 6.10729 16.7992 6.0641 16.6928C6.02092 16.5865 5.99919 16.4724 6.00003 16.3577C5.99905 16.2428 6.02072 16.129 6.06384 16.0225C6.10696 15.916 6.17076 15.819 6.25139 15.7372C6.33203 15.6553 6.42804 15.5904 6.53388 15.5457C6.63972 15.5011 6.75311 15.4777 6.86799 15.477H24.2549C24.3698 15.4777 24.4836 15.5011 24.5895 15.5457C24.6954 15.5904 24.7913 15.6554 24.872 15.7372C24.9527 15.819 25.0166 15.9158 25.0598 16.0223C25.1031 16.1287 25.125 16.2427 25.1241 16.3577Z" fill="currentColor"/>
<path d="M9.31813 23.8346V17.9739H14.8561V23.8346C14.8561 23.9503 14.8332 24.0647 14.7889 24.1716C14.7446 24.2784 14.6798 24.3756 14.598 24.4574C14.5162 24.5392 14.419 24.6041 14.3121 24.6483C14.2053 24.6926 14.0908 24.7155 13.9752 24.7155H10.1991C9.96553 24.7152 9.74162 24.6223 9.57649 24.4572C9.41137 24.292 9.31841 24.0681 9.31813 23.8346Z" fill="currentColor"/>
<path d="M9.31813 14.7395V8.87989C9.31869 8.64637 9.41194 8.42251 9.57727 8.25759C9.74259 8.09266 9.96657 8 10.2001 8H13.9762C14.2096 8 14.4336 8.09263 14.5988 8.25759C14.7639 8.42254 14.8568 8.64647 14.8571 8.87989V14.7395H9.31813Z" fill="currentColor"/>
</g>
</svg>
