<svg width="32" height="32" viewBox="0 0 32 32" fill="none" xmlns="http://www.w3.org/2000/svg">
<g mask="url(#mask0_383_3579)">
<path d="M7.38818 17.5287V21.4632C7.38818 21.7566 7.62603 21.9944 7.91944 21.9944H20.9798C21.2732 21.9944 21.511 21.7566 21.511 21.4632V17.5287C21.511 17.2353 21.2732 16.9975 20.9798 16.9975H7.91944C7.62603 16.9975 7.38818 17.2353 7.38818 17.5287Z" fill="currentColor"/>
<path d="M11.5182 10.0349V13.9694C11.5182 14.2628 11.756 14.5007 12.0494 14.5007H20.9798C21.2732 14.5007 21.511 14.2628 21.511 13.9694V10.0349C21.511 9.74155 21.2732 9.50369 20.9798 9.50369H12.0494C11.756 9.50369 11.5182 9.74155 11.5182 10.0349Z" fill="currentColor"/>
<path d="M23.2451 25.2819C23.0151 25.2819 22.7946 25.1905 22.632 25.0279C22.4694 24.8653 22.3781 24.6448 22.3781 24.4149V7.08322C22.3781 6.96941 22.4005 6.85672 22.4441 6.75159C22.4877 6.64646 22.5515 6.55095 22.6321 6.47053C22.7126 6.3901 22.8082 6.32634 22.9133 6.28288C23.0185 6.23943 23.1313 6.21713 23.2451 6.21727C23.4748 6.21727 23.6952 6.30847 23.8577 6.47084C24.0203 6.6332 24.1118 6.85346 24.1121 7.08322V24.4149C24.1118 24.6447 24.0203 24.8651 23.8578 25.0276C23.6953 25.1901 23.4749 25.2816 23.2451 25.2819Z" fill="currentColor"/>
</g>
</svg>
