<svg width="32" height="32" viewBox="0 0 32 32" fill="none" xmlns="http://www.w3.org/2000/svg">
<g clip-path="url(#clip0_195_3211)">
<path d="M21.25 17.7759L22.9084 19.4517C23.2053 19.7517 23.2053 20.2483 22.9084 20.5483C22.7548 20.7034 22.5603 20.7759 22.3658 20.7759C22.1713 20.7759 21.9768 20.7034 21.8233 20.5483L18.8545 17.5483C18.7829 17.4759 18.7317 17.3931 18.6907 17.3C18.6088 17.1138 18.6088 16.8966 18.6907 16.7103C18.7317 16.6172 18.7829 16.5345 18.8545 16.4621L21.8233 13.4621C22.1201 13.1621 22.6115 13.1621 22.9084 13.4621C23.2053 13.7621 23.2053 14.2586 22.9084 14.5586L21.25 16.2345H26V10.069C26 8.93103 25.0787 8 23.9526 8H17.2678V26H23.9526C25.0787 26 26 25.069 26 23.931V17.7759H21.25Z" fill="currentColor"/>
<path d="M15.7322 8H9.04741C7.92134 8 7 8.93103 7 10.069V16.2241H11.75L10.0916 14.5483C9.79472 14.2483 9.79472 13.7517 10.0916 13.4517C10.3885 13.1517 10.8798 13.1517 11.1767 13.4517L14.1455 16.4517C14.2171 16.5241 14.2683 16.6069 14.3093 16.7C14.3912 16.8862 14.3912 17.1034 14.3093 17.2897C14.2683 17.3828 14.2171 17.4655 14.1455 17.5379L11.1767 20.5379C11.0232 20.6931 10.8287 20.7655 10.6342 20.7655C10.4397 20.7655 10.2452 20.6931 10.0916 20.5379C9.79472 20.2379 9.79472 19.7414 10.0916 19.4414L11.75 17.7655H7V23.9207C7 25.0586 7.92134 25.9897 9.04741 25.9897H15.7322V8Z" fill="currentColor"/>
</g>
</svg>
