<svg width="32" height="32" viewBox="0 0 32 32" fill="none" xmlns="http://www.w3.org/2000/svg">
<g clip-path="url(#clip1_418_3138)">
<path d="M6 6.50794V25.4917C6 25.7762 6.22369 25.9998 6.50839 25.9998H25.4916C25.7763 25.9998 26 25.7762 26 25.4917V6.51811C26 6.23355 25.7763 6.00998 25.4916 6.00998H6.50839C6.22369 5.99981 6 6.22339 6 6.50794ZM6.76258 24.4754L11.6024 19.638C10.4331 18.4693 9.77224 16.7823 9.98577 14.9429C10.2705 12.4327 12.2837 10.3596 14.785 10.0039C16.6762 9.72949 18.4352 10.3901 19.6451 11.5994L24.4748 6.77217V24.4754H6.76258Z" fill="currentColor"/>
<path d="M21.2415 16.4573C21.516 14.5671 20.8551 12.809 19.6452 11.5996L11.6024 19.6382C12.7717 20.8069 14.4596 21.4675 16.3 21.2541C18.8114 20.9695 20.8856 18.9573 21.2415 16.4573Z" fill="currentColor"/>
</g>
</svg>
