<svg width="1em" height="1em" viewBox="0 0 20 20" fill="none" xmlns="http://www.w3.org/2000/svg">
  <path
    d="M10.2718 3H9.1051C9.0014 3 8.94954 3.05185 8.94954 3.15556V9.26111H3.15556C3.05185 9.26111 3 9.31296 3 9.41667V10.5833C3 10.687 3.05185 10.7389 3.15556 10.7389H8.94954V16.8444C8.94954 16.9481 9.0014 17 9.1051 17H10.2718C10.3755 17 10.4273 16.9481 10.4273 16.8444V10.7389H16.2222C16.3259 10.7389 16.3778 10.687 16.3778 10.5833V9.41667C16.3778 9.31296 16.3259 9.26111 16.2222 9.26111H10.4273V3.15556C10.4273 3.05185 10.3755 3 10.2718 3Z"
    fill="currentColor" />
</svg>