<svg width="1em" height="1em" viewBox="0 0 20 20" fill="none" xmlns="http://www.w3.org/2000/svg">
  <path
    d="M10.0539 7.18544C9.48582 7.18544 8.95382 7.40584 8.55102 7.80864C8.15012 8.21144 7.92782 8.74344 7.92782 9.31154C7.92782 9.87964 8.15012 10.4116 8.55102 10.8144C8.95382 11.2153 9.48582 11.4376 10.0539 11.4376C10.622 11.4376 11.154 11.2153 11.5568 10.8144C11.9577 10.4116 12.18 9.87964 12.18 9.31154C12.18 8.74344 11.9577 8.21144 11.5568 7.80864C11.3601 7.61039 11.1259 7.45321 10.8679 7.34622C10.6099 7.23924 10.3332 7.18459 10.0539 7.18544ZM17.8876 11.6599L16.645 10.5978C16.7039 10.2368 16.7343 9.86824 16.7343 9.50154C16.7343 9.13484 16.7039 8.76434 16.645 8.40524L17.8876 7.34314C17.9815 7.26278 18.0487 7.15576 18.0802 7.03629C18.1118 6.91682 18.1062 6.79058 18.0643 6.67434L18.0472 6.62494C17.7052 5.66866 17.1928 4.78224 16.5348 4.00865L16.5006 3.96875C16.4207 3.8748 16.3142 3.80726 16.1952 3.77504C16.0761 3.74282 15.9501 3.74742 15.8337 3.78825L14.2909 4.33735C13.7209 3.86995 13.0863 3.50135 12.3985 3.24485L12.1002 1.63175C12.0777 1.51023 12.0188 1.39843 11.9312 1.31122C11.8436 1.224 11.7316 1.16548 11.61 1.14345L11.5587 1.13395C10.5707 0.95535 9.52952 0.95535 8.54152 1.13395L8.49022 1.14345C8.36862 1.16548 8.25659 1.224 8.16903 1.31122C8.08148 1.39843 8.02253 1.51023 8.00002 1.63175L7.69982 3.25245C7.01854 3.51099 6.38387 3.8787 5.82073 4.34115L4.26653 3.78825C4.15018 3.7471 4.02407 3.74233 3.90495 3.77457C3.78583 3.80681 3.67934 3.87453 3.59963 3.96875L3.56543 4.00865C2.90859 4.78307 2.39631 5.66926 2.05303 6.62494L2.03593 6.67434C1.95043 6.91184 2.02073 7.17784 2.21263 7.34314L3.47043 8.41664C3.41153 8.77384 3.38303 9.13864 3.38303 9.49964C3.38303 9.86444 3.41153 10.2292 3.47043 10.5826L2.21643 11.6561C2.12256 11.7365 2.05538 11.8435 2.02382 11.963C1.99225 12.0825 1.9978 12.2087 2.03973 12.3249L2.05683 12.3743C2.40073 13.33 2.90803 14.2135 3.56923 14.9906L3.60343 15.0305C3.68333 15.1245 3.78983 15.192 3.90888 15.2242C4.02793 15.2565 4.15395 15.2519 4.27033 15.211L5.82453 14.6581C6.39072 15.1236 7.02152 15.4922 7.70362 15.7468L8.00382 17.3675C8.02633 17.489 8.08528 17.6008 8.17283 17.6881C8.26039 17.7753 8.37242 17.8338 8.49402 17.8558L8.54532 17.8653C9.54304 18.0449 10.5648 18.0449 11.5625 17.8653L11.6138 17.8558C11.7354 17.8338 11.8474 17.7753 11.935 17.6881C12.0226 17.6008 12.0815 17.489 12.104 17.3675L12.4023 15.7544C13.0901 15.496 13.7247 15.1293 14.2947 14.6619L15.8375 15.211C15.9539 15.2522 16.08 15.257 16.1991 15.2247C16.3182 15.1925 16.4247 15.1247 16.5044 15.0305L16.5386 14.9906C17.1998 14.2097 17.7071 13.33 18.051 12.3743L18.0681 12.3249C18.1498 12.0893 18.0795 11.8252 17.8876 11.6599ZM10.0539 12.6517C8.20902 12.6517 6.71372 11.1564 6.71372 9.31154C6.71372 7.46664 8.20902 5.97134 10.0539 5.97134C11.8988 5.97134 13.3941 7.46664 13.3941 9.31154C13.3941 11.1564 11.8988 12.6517 10.0539 12.6517Z"
    fill="currentColor" />
</svg>