<svg width="1em" height="1em" viewBox="0 0 16 16" fill="none" xmlns="http://www.w3.org/2000/svg">
<path d="M1.30938 5.84455C1.61482 4.90397 2.11798 4.04058 2.78188 3.30888C2.89414 3.18515 3.07027 3.14105 3.22796 3.19719L4.81455 3.76205C5.2447 3.91511 5.71801 3.69198 5.87172 3.26368C5.88683 3.22156 5.89848 3.1783 5.90652 3.13437L6.20879 1.48237C6.23884 1.31812 6.36554 1.18819 6.52954 1.15342C7.00941 1.05172 7.50142 1 7.99988 1C8.49804 1 8.98976 1.05167 9.46935 1.15323C9.63331 1.18797 9.75999 1.31781 9.79011 1.48201L10.0932 3.1343C10.1752 3.58174 10.6059 3.87831 11.0553 3.79672C11.0995 3.78869 11.1429 3.7771 11.1852 3.76207L12.7718 3.19719C12.9295 3.14105 13.1056 3.18515 13.2178 3.30888C13.8818 4.04058 14.3849 4.90397 14.6904 5.84455C14.7419 6.00322 14.6922 6.17718 14.5645 6.28511L13.2785 7.37225C12.9304 7.66664 12.8878 8.18634 13.1834 8.53304C13.2125 8.56713 13.2443 8.5988 13.2785 8.62773L14.5645 9.71488C14.6922 9.82281 14.7419 9.99677 14.6904 10.1555C14.3849 11.0961 13.8818 11.9595 13.2178 12.6911C13.1056 12.8148 12.9295 12.8589 12.7718 12.8028L11.1852 12.2379C10.7551 12.0849 10.2818 12.3081 10.128 12.7363C10.1129 12.7784 10.1013 12.8217 10.0932 12.8658L9.79011 14.518C9.75999 14.6822 9.63331 14.812 9.46935 14.8468C8.98976 14.9483 8.49804 15 7.99988 15C7.50142 15 7.00941 14.9483 6.52954 14.8465C6.36554 14.8118 6.23884 14.6819 6.20879 14.5177L5.90653 12.8657C5.82458 12.4182 5.39387 12.1217 4.94449 12.2033C4.9003 12.2113 4.85685 12.2229 4.81462 12.2379L3.22796 12.8028C3.07027 12.8589 2.89414 12.8148 2.78188 12.6911C2.11798 11.9595 1.61482 11.0961 1.30938 10.1555C1.25786 9.99677 1.30754 9.82281 1.43522 9.71488L2.7212 8.62774C3.0694 8.33335 3.11198 7.81365 2.81633 7.46695C2.78726 7.43286 2.75545 7.40119 2.72122 7.37226L1.43522 6.28511C1.30754 6.17718 1.25786 6.00322 1.30938 5.84455ZM5.95739 7.99992C5.95739 9.12788 6.87178 10.0423 7.99974 10.0423C9.1277 10.0423 10.0421 9.12788 10.0421 7.99992C10.0421 6.87196 9.1277 5.95757 7.99974 5.95757C6.87178 5.95757 5.95739 6.87196 5.95739 7.99992Z" fill="currentColor"/>
</svg>
