<svg width="50" height="50" viewBox="0 0 50 50" fill="none" xmlns="http://www.w3.org/2000/svg">
<g>
<circle cx="25" cy="25" r="11" fill="#5B5B5B"/>
<path d="M25.0059 44L28.5946 37.8378H21.4054L25.0059 44Z" fill="#5B5B5B"/>
<path d="M12.1622 38.8648L18.3243 36.9477L13.8159 31.6757L12.1622 38.8648Z" fill="#5B5B5B"/>
<path d="M6 24.9941L12.1622 28.5946V21.4054L6 24.9941Z" fill="#5B5B5B"/>
<path d="M12.1622 12.1621L13.8054 18.3243L18.3243 13.8054L12.1622 12.1621Z" fill="#5B5B5B"/>
<path d="M25.0059 6L21.4054 12.1622H28.5946L25.0059 6Z" fill="#5B5B5B"/>
<path d="M38.8649 12.1621L31.6757 13.8054L36.9478 18.3243L38.8649 12.1621Z" fill="#5B5B5B"/>
<path d="M44 25.0059L37.8378 21.4054V28.5946L44 25.0059Z" fill="#5B5B5B"/>
<path d="M38.8649 38.8648L36.9478 31.6757L31.6757 36.9477L38.8649 38.8648Z" fill="#5B5B5B"/>
</g>
</svg>
