<svg width="1em" height="1em" viewBox="0 0 30 30" fill="none" xmlns="http://www.w3.org/2000/svg">
<path d="M13.294 17.7476V10.9C13.294 10.3357 13.7512 9.88098 14.3131 9.88098C14.8774 9.88098 15.3321 10.3381 15.3321 10.9V14.8572C15.3321 14.8572 15.5869 14.4619 16.2321 14.4619C16.7155 14.4619 17.0369 14.8643 17.1964 15.1048C17.1964 15.1048 17.4369 14.7834 18.0012 14.7834C18.4036 14.7834 18.806 15.0238 18.9345 15.4191C18.9345 15.4191 19.2464 15.1524 19.6893 15.1857C20.1607 15.2215 20.5893 15.7881 20.6536 16.3119C20.7226 16.8691 20.6131 18.3238 20.4417 19.9024C20.2821 21.381 19.0298 22.5 17.544 22.5H15.0417C14.4107 22.5 13.8131 22.2191 13.4107 21.731L10.2512 17.7976C9.89881 17.3262 9.99167 16.6596 10.4607 16.3024C10.906 15.9643 11.5345 16.0262 11.906 16.4453L13.2893 17.7453L13.294 17.7476Z" fill="currentColor"/>
<path d="M22.9869 7.5H22.8536C22.7774 7.5 22.7107 7.54762 22.6798 7.61905C22.6083 7.7881 22.4393 7.90952 22.244 7.90952H20.2036C20.006 7.90952 19.8393 7.79048 19.7679 7.61905C19.7369 7.54762 19.6702 7.5 19.594 7.5H7.01071C6.11071 7.5 5.38214 8.22857 5.38214 9.12857V13.1881C5.38214 13.4667 5.60595 13.6905 5.88452 13.6905H12.5798V10.9C12.5798 10.7952 12.5917 10.6929 12.6083 10.5952H8.29643C7.90357 10.5952 7.58452 10.2762 7.58452 9.88333V8.78571C7.58452 8.60238 7.73214 8.45476 7.91548 8.45476H17.8631C18.0464 8.45476 18.194 8.60238 18.194 8.78571V9.88333C18.194 10.2762 17.875 10.5952 17.4821 10.5952H16.0179C16.0345 10.6952 16.0464 10.7976 16.0464 10.9V13.6905H24.1131C24.3917 13.6905 24.6155 13.4667 24.6155 13.1881V9.12857C24.6155 8.22857 23.8869 7.5 22.9869 7.5ZM22.3798 10.1881C22.0988 10.1881 21.8702 9.95952 21.8702 9.67857C21.8702 9.39762 22.0988 9.16905 22.3798 9.16905C22.6607 9.16905 22.8893 9.39762 22.8893 9.67857C22.8893 9.95952 22.6607 10.1881 22.3798 10.1881Z" fill="currentColor"/>
</svg>
