<svg width="14" height="14" viewBox="0 0 14 14" fill="none" xmlns="http://www.w3.org/2000/svg">
<g clip-path="url(#clip0_6824_2714)">
<path fill-rule="evenodd" clip-rule="evenodd" d="M4.00497 1.00008C4.00497 0.58587 3.66919 0.250084 3.25497 0.250084C2.84076 0.250084 2.50497 0.58587 2.50497 1.00008V2.30819H1C0.585786 2.30819 0.25 2.64398 0.25 3.05819C0.25 3.4724 0.585786 3.80819 1 3.80819H2.50497V10.9418C2.50497 11.356 2.84076 11.6918 3.25497 11.6918H9.99695V12.9999C9.99695 13.4141 10.3327 13.7499 10.7469 13.7499C11.1612 13.7499 11.4969 13.4141 11.4969 12.9999V11.6918H13C13.4142 11.6918 13.75 11.356 13.75 10.9418C13.75 10.5276 13.4142 10.1918 13 10.1918H11.4969V3.05819C11.4969 2.64398 11.1612 2.30819 10.7469 2.30819H4.00497V1.00008ZM4.00497 3.80819V10.1918H9.99695V3.80819H4.00497Z" fill="black" fill-opacity="0.85"/>
</g>
<defs>
<clipPath id="clip0_6824_2714">
<rect width="14" height="14" fill="white"/>
</clipPath>
</defs>
</svg>
