<svg width="1em" viewBox="0 0 32 32" fill="none" xmlns="http://www.w3.org/2000/svg">
<g clip-path="url(#clip2_618_3100)">
<path d="M9.64 28.34H9.62C8.52 28.34 7.5 28.05 6.66 27.52C5.31 26.67 4.69 25 5.15 23.45L5.21 23.26C5.63 21.84 6.07 20.37 6.86 18.94C7.02 18.65 7.07 18.34 7.01 18.07C6.79 17.09 6.72 16.28 6.77 15.59C6.89 14.17 7.85 9.40002 15.41 7.60002C18.9 6.77002 20.51 5.90002 21.04 5.57002C21.71 5.15002 22.48 4.96002 23.26 5.03002C24.96 5.17002 26.35 6.58002 26.56 8.37002C26.84 10.74 27.11 16.67 23.65 20.65C21.57 23.04 18.4 24.3 14.47 24.3C14.11 24.3 13.76 24.29 13.43 24.27C13.35 24.6 13.26 24.97 13.19 25.4C12.87 27.11 11.37 28.36 9.64 28.36V28.34ZM9.63 26.84H9.64C10.65 26.84 11.52 26.11 11.71 25.11C11.81 24.56 11.92 24.08 12.03 23.68C12.18 23.1 12.72 22.71 13.32 22.75C13.67 22.77 14.06 22.79 14.46 22.79C17.94 22.79 20.73 21.71 22.51 19.65C25.57 16.12 25.31 10.7 25.06 8.53002C24.94 7.46002 24.1 6.59002 23.13 6.51002C22.68 6.47002 22.22 6.58002 21.83 6.83002C21.24 7.21002 19.45 8.17002 15.75 9.05002C9.18 10.61 8.36 14.53 8.26 15.7C8.22 16.23 8.29 16.91 8.47 17.74C8.61 18.37 8.5 19.06 8.16 19.66C7.44 20.95 7.03 22.34 6.63 23.69L6.57 23.88C6.3 24.78 6.66 25.76 7.44 26.25C8.04 26.63 8.79 26.84 9.61 26.84H9.63Z" fill="#7C7C7C"/>
<path d="M23.31 8.55997C23.28 8.30997 22.99 8.16997 22.77 8.30997C21.97 8.81997 20 9.83997 16.16 10.76C11.84 11.79 10.16 14.04 10.01 15.85C9.96 16.42 10.05 17.95 10.63 19.2C9.33 20.68 8.82 22.48 8.26 24.39C8.22 24.53 8.26 24.7 8.39 24.78C8.82 25.05 9.32 25.1 9.64 25.1C9.81 25.1 9.96 24.97 9.99 24.8C10.4 22.58 10.94 21.4 11.19 20.95C11.26 20.81 11.41 20.74 11.56 20.77C12.77 21.01 18.29 21.86 21.2 18.51C23.91 15.39 23.53 10.28 23.31 8.56997V8.55997Z" fill="#7C7C7C"/>
</g>
<defs>
<clipPath id="clip2_618_3100">
<rect width="21.71" height="23.34" fill="white" transform="translate(5 5)"/>
</clipPath>
</defs>
</svg>
